<svg width="40" height="40" viewBox="0 0 40 40" fill="none" xmlns="http://www.w3.org/2000/svg">
<circle cx="20" cy="20" r="19.5" fill="#FBFBFB" stroke="#E1E1E1"/>
<g clip-path="url(#clip0_98_1655)">
<path d="M20 25.25C22.0711 25.25 23.75 23.5711 23.75 21.5C23.75 19.4289 22.0711 17.75 20 17.75C17.9289 17.75 16.25 19.4289 16.25 21.5C16.25 23.5711 17.9289 25.25 20 25.25Z" fill="#7BFAC4"/>
<path d="M14 19.25C15.6569 19.25 17 17.9069 17 16.25C17 14.5931 15.6569 13.25 14 13.25C12.3431 13.25 11 14.5931 11 16.25C11 17.9069 12.3431 19.25 14 19.25Z" fill="#7BFAC4"/>
<path d="M26 19.25C27.6569 19.25 29 17.9069 29 16.25C29 14.5931 27.6569 13.25 26 13.25C24.3431 13.25 23 14.5931 23 16.25C23 17.9069 24.3431 19.25 26 19.25Z" fill="#7BFAC4"/>
<path d="M26 19.25C26.8734 19.2493 27.7349 19.4524 28.516 19.843C29.2972 20.2335 29.9765 20.8009 30.5 21.5" stroke="#0D6ECD" stroke-width="2" stroke-linecap="round" stroke-linejoin="round"/>
<path d="M9.5 21.5C10.0235 20.8009 10.7028 20.2335 11.484 19.843C12.2651 19.4524 13.1266 19.2493 14 19.25" stroke="#0D6ECD" stroke-width="2" stroke-linecap="round" stroke-linejoin="round"/>
<path d="M20 25.25C22.0711 25.25 23.75 23.5711 23.75 21.5C23.75 19.4289 22.0711 17.75 20 17.75C17.9289 17.75 16.25 19.4289 16.25 21.5C16.25 23.5711 17.9289 25.25 20 25.25Z" stroke="#0D6ECD" stroke-width="2" stroke-linecap="round" stroke-linejoin="round"/>
<path d="M14.75 28.25C15.2884 27.3364 16.0559 26.579 16.9767 26.0529C17.8974 25.5267 18.9395 25.25 20 25.25C21.0605 25.25 22.1026 25.5267 23.0233 26.0529C23.9441 26.579 24.7116 27.3364 25.25 28.25" stroke="#0D6ECD" stroke-width="2" stroke-linecap="round" stroke-linejoin="round"/>
<path d="M23.0938 15.5C23.234 14.9568 23.5238 14.4638 23.9302 14.077C24.3366 13.6902 24.8433 13.4251 25.3927 13.3118C25.9422 13.1985 26.5125 13.2416 27.0387 13.4361C27.5649 13.6306 28.0261 13.9688 28.3697 14.4123C28.7134 14.8557 28.9258 15.3867 28.9829 15.9448C29.04 16.5029 28.9394 17.0659 28.6926 17.5697C28.4458 18.0735 28.0627 18.4981 27.5867 18.7951C27.1108 19.0921 26.561 19.2497 26 19.25" stroke="#0D6ECD" stroke-width="2" stroke-linecap="round" stroke-linejoin="round"/>
<path d="M14.0004 19.25C13.4394 19.2497 12.8897 19.0921 12.4137 18.7951C11.9378 18.4981 11.5546 18.0735 11.3078 17.5697C11.061 17.0659 10.9604 16.5029 11.0175 15.9448C11.0746 15.3867 11.287 14.8557 11.6307 14.4123C11.9744 13.9688 12.4355 13.6306 12.9618 13.4361C13.488 13.2416 14.0582 13.1985 14.6077 13.3118C15.1572 13.4251 15.6639 13.6902 16.0703 14.077C16.4767 14.4638 16.7664 14.9568 16.9067 15.5" stroke="#0D6ECD" stroke-width="2" stroke-linecap="round" stroke-linejoin="round"/>
</g>
<defs>
<clipPath id="clip0_98_1655">
<rect width="24" height="24" fill="white" transform="translate(8 8)"/>
</clipPath>
</defs>
</svg>
