<svg width="442" height="298" viewBox="0 0 442 298" fill="none" xmlns="http://www.w3.org/2000/svg">
<path d="M150.271 128.459C150.271 128.459 152.637 128.965 153.696 129.35C154.757 129.736 159.357 133.546 159.257 133.976C159.157 134.406 159.114 134.774 158.456 134.52C157.798 134.265 155.112 131.929 154.428 131.742C153.744 131.556 152.139 132.16 152.191 132.429C152.24 132.698 154.869 135.656 154.422 136.137C153.979 136.619 153.513 136.637 153.152 136.303C152.792 135.968 147.559 131.872 147.542 131.408C147.525 130.944 150.271 128.459 150.271 128.459Z" fill="#EFAE97"/>
<path d="M96.0701 87.371C96.0701 87.371 118.375 109.651 119.045 110.703C119.715 111.755 151.508 126.875 151.669 127.719C151.826 128.563 147.989 133.467 147.989 133.467C147.989 133.467 117.694 122.564 111.544 118.045C105.395 113.527 87.8477 97.754 87.8477 97.754L96.0701 87.371Z" fill="#7BFAC4"/>
<path d="M90.0156 99.7625C90.0156 99.7625 92.2826 98.4357 93.166 98.1459C94.0492 97.8563 109.712 114.692 113.041 116.544C116.371 118.396 134.65 128.459 134.65 128.459C134.65 128.459 116.016 121.599 111.543 118.046C107.069 114.492 92.1853 101.771 90.0156 99.7625Z" fill="#7BFAC4"/>
<path d="M27.0048 153.088L26.1854 152.652C26.7144 151.659 27.2763 150.428 27.3618 150C26.642 149.433 22.9295 147.476 21.8689 147.094C21.6037 147.583 21.0367 148.691 20.5275 149.709L19.6973 149.293C20.0131 148.662 21.059 146.582 21.2507 146.314C21.3011 146.243 21.4473 146.084 21.7382 146.107C22.2995 146.156 27.8942 148.887 28.2372 149.6C28.3259 149.785 28.5342 150.218 27.0048 153.088Z" fill="#2F313E"/>
<path d="M36.186 158.409C36.186 158.409 9.67515 143.383 9.04576 144.303C8.41637 145.223 -0.82596 160.679 0.0597647 161.592C0.94549 162.506 25.6322 176.093 26.3652 175.265C27.0981 174.436 36.7701 160.489 36.186 158.409Z" fill="#FFEEE5"/>
<path d="M36.1859 158.41C36.1859 158.41 19.604 159.699 18.579 158.273C17.5536 156.847 8.03523 144.095 9.04569 144.304C10.0561 144.512 22.1256 148.71 36.1859 158.41Z" fill="#F3D3C1"/>
<path d="M27.9755 146.852C27.9755 146.852 28.7076 149.502 26.9585 150.501C26.3231 150.864 23.9523 150.066 23.3938 149.511C22.8357 148.957 21.6252 148.237 21.7932 147.017C22.0352 145.259 24.3222 144.173 24.3222 144.173L27.9755 146.852Z" fill="#EFAE97"/>
<path d="M70.8152 225.381C70.7906 226.339 70.766 227.295 70.7414 228.253C70.7356 228.485 70.7311 228.725 70.824 228.934C70.9642 229.255 71.2929 229.443 71.6073 229.595C73.5679 230.539 75.7482 230.902 77.8352 231.517C78.4866 231.709 79.1546 231.944 79.6401 232.416C80.1259 232.891 80.3739 233.675 80.0429 234.27C74.2991 234.287 68.6692 234.121 62.9349 233.792C62.7003 233.592 62.6176 233.283 62.579 232.977C62.446 231.927 62.537 230.848 62.8434 229.835C63.0153 229.269 63.2261 228.651 63.2528 228.059C63.2905 227.22 63.328 226.385 63.3657 225.547C65.8696 225.498 68.3113 225.432 70.8152 225.381Z" fill="#2F313E"/>
<path d="M92.3239 225.381C92.2993 226.339 92.2747 227.295 92.2501 228.253C92.2444 228.485 92.2398 228.725 92.3328 228.934C92.473 229.255 92.8017 229.443 93.1161 229.595C95.0767 230.539 97.2569 230.902 99.3439 231.517C99.9954 231.709 100.663 231.944 101.149 232.416C101.635 232.891 101.883 233.675 101.552 234.27C95.8079 234.287 90.178 234.121 84.4437 233.792C84.2091 233.592 84.1264 233.283 84.0878 232.977C83.9548 231.927 84.0457 230.848 84.3521 229.835C84.5241 229.269 84.7349 228.651 84.7615 228.059C84.7993 227.22 84.8368 226.385 84.8745 225.547C87.3784 225.498 89.8201 225.432 92.3239 225.381Z" fill="#2F313E"/>
<path d="M100.035 137.743C100.197 136.861 100.36 136.08 100.36 136.08L65.5493 136.833C65.5493 136.833 64.5137 180.797 64.536 181.723C64.5515 182.366 64.5449 183.008 64.5329 183.652C64.369 192.45 63.4795 201.261 62.7188 210.024C62.3663 214.086 61.9979 218.143 61.6162 222.203C61.5089 223.344 61.2575 224.563 61.2824 225.71C61.2969 226.374 61.0518 226.394 61.6786 226.743C62.4284 227.16 64.0643 227.052 64.9271 227.158C65.8411 227.269 66.7558 227.378 67.6715 227.472C68.977 227.61 70.9289 228.116 72.2195 227.695C73.3278 227.335 77.266 181.916 77.2695 181.878C77.9978 173.478 78.9951 164.451 82.4694 156.568C83.37 154.524 83.9885 153.345 84.9005 152.707C84.9005 152.707 90.5576 180.628 90.9833 183.821C91.409 187.014 82.6668 226.791 84.0122 227.16C85.3577 227.527 92.9407 228.682 93.3075 227.859C93.6745 227.037 103.214 184.402 103.092 182.114C102.97 179.827 100.035 137.743 100.035 137.743Z" fill="#2F313E"/>
<path d="M89.6873 77.4927C89.7047 77.7112 89.6984 77.87 89.5646 78.0128C89.2765 78.3203 88.6605 78.4965 88.3839 78.613C87.9762 78.7846 87.1892 79.0773 87.3239 79.6557C87.3314 79.6872 87.3414 79.7178 87.3531 79.7479C87.6229 80.4345 89.481 83.8541 89.481 83.8541L83.1757 87.7941C83.1757 87.7941 76.555 73.1038 76.781 72.7934C77.0068 72.483 83.2008 67.2379 85.1219 68.2878C85.1219 68.2878 86.5126 71.8193 86.924 72.1591C87.3354 72.4987 89.6183 73.3756 89.3554 73.8702C89.0925 74.3652 88.3621 74.4764 88.4654 74.6226C88.4654 74.6226 88.514 74.9651 88.6454 75.1985C88.6454 75.1985 89.6664 77.2309 89.6873 77.4927Z" fill="#EFAE97"/>
<path d="M82.1397 74.7396C82.3214 74.6818 82.4187 74.4896 82.4942 74.3145C82.9914 73.1613 81.7813 72.1686 82.2473 71.0028C82.4876 70.4014 83.8809 69.4977 84.651 69.0319C85.3325 68.6171 85.2209 68.5913 85.4194 69.0806C85.4475 69.1489 85.493 69.223 85.5662 69.2342C85.64 69.2453 85.7035 69.185 85.7522 69.1283C86.532 68.2223 86.9391 67.3039 86.5655 66.1682C86.2943 65.3414 85.6443 64.6605 84.8524 64.3029C83.7624 63.8108 82.2376 63.8738 81.2898 64.6576C80.6635 65.1783 80.3623 65.9336 79.9615 66.6173C79.4316 67.5185 78.9181 67.8847 77.8893 68.0478C76.7848 68.2223 75.6902 68.6743 74.9358 69.4994C74.2941 70.2009 73.9594 71.1856 74.1133 72.1314C74.3087 73.3315 75.3826 74.0793 75.8375 75.1616C76.222 76.0768 76.2641 77.091 76.7782 77.963C77.3589 78.9485 78.7859 80.7801 80.1308 80.3489C80.6489 80.183 80.8807 79.7459 81.0669 79.2747C81.3041 78.6753 81.6803 77.036 81.4053 76.453C80.6549 76.6953 79.7326 76.3503 79.3286 75.6731C79.2457 75.5341 79.1816 75.381 79.1653 75.22C79.1461 75.0263 79.1976 74.8306 79.2817 74.6549C79.4717 74.259 79.8399 73.9477 80.2676 73.849C80.6953 73.7503 81.1733 73.8751 81.4823 74.1869C81.6932 74.3997 81.8639 74.6226 82.1397 74.7396Z" fill="#242B31"/>
<path d="M87.831 78.8755C87.831 78.8755 84.7223 79.7369 85.0044 80.74C85.2862 81.7427 88.4455 81.9212 88.4455 81.9212C88.4455 81.9212 87.34 79.8288 87.3323 79.5742C87.3243 79.3198 87.831 78.8755 87.831 78.8755Z" fill="#E59E85"/>
<path d="M82.8095 82.6246C82.8095 82.6246 69.305 81.8098 66.956 100.969C64.6072 120.128 62.2684 138.44 66.4833 139.902C70.698 141.365 99.3782 141.948 101.293 139.149C103.209 136.351 99.7996 96.3199 98.1989 91.3165C97.999 90.6911 97.7406 90.0909 97.4414 89.5199C95.3258 85.4795 91.1552 82.931 86.5973 82.7637L82.8095 82.6246Z" fill="#7BFAC4"/>
<path d="M79.873 82.9557C79.873 82.9557 86.9128 95.8273 88.4949 96.0893C90.0772 96.3514 91.2184 83.7976 91.2184 83.7976C91.2184 83.7976 88.9354 82.5986 84.9388 82.4613C80.9424 82.324 79.873 82.9557 79.873 82.9557Z" fill="white"/>
<path d="M87.3417 84.2008C87.7067 83.4813 87.5076 82.6791 87.5076 82.6791C87.5076 82.6791 85.9146 81.6667 84.6152 82.4517C84.6152 82.4517 85.3791 84.2051 86.0242 84.5847C86.0242 84.5847 85.6051 92.7056 86.1166 93.4197C86.6301 94.1363 88.0652 96.3661 88.7438 96.096C89.4221 95.826 90.1115 92.2813 90.1044 92.0467C90.0975 91.8316 88.1847 85.201 87.3417 84.2008Z" fill="#0D6ECD"/>
<path d="M85.6621 104.595C85.6521 104.582 85.6418 104.568 85.6315 104.555C85.6306 104.552 85.6297 104.55 85.6286 104.548C85.6383 104.564 85.6501 104.58 85.6621 104.595ZM85.6172 105.307C85.8758 105.345 86.1167 105.261 86.3178 105.099C86.5003 104.951 86.6405 104.694 86.6182 104.455C86.6033 104.298 86.5481 104.163 86.4402 104.047C86.3719 103.973 86.2834 103.913 86.1942 103.867C85.9782 103.756 85.7193 103.642 85.473 103.714C85.3311 103.756 85.2018 103.844 85.1271 103.974C85.0988 104.024 85.0816 104.075 85.0722 104.126C85.0564 104.149 85.0416 104.172 85.0293 104.197C84.914 104.427 84.9057 104.696 85.0433 104.921C85.1691 105.127 85.3783 105.272 85.6172 105.307Z" fill="#242B31"/>
<path d="M85.3583 114.553C85.3572 114.551 85.3563 114.548 85.3555 114.546C85.3652 114.562 85.3766 114.578 85.3889 114.594C85.3786 114.58 85.3683 114.567 85.3583 114.553ZM86.1668 114.045C86.0984 113.972 86.01 113.911 85.9208 113.866C85.705 113.755 85.4461 113.64 85.1995 113.713C85.0579 113.754 84.9283 113.843 84.8539 113.973C84.8256 114.022 84.8085 114.073 84.7987 114.125C84.783 114.147 84.7684 114.171 84.7558 114.195C84.6405 114.426 84.6322 114.695 84.7698 114.92C84.896 115.125 85.1048 115.27 85.344 115.305C85.6026 115.343 85.8435 115.259 86.0444 115.097C86.2272 114.95 86.3673 114.692 86.3447 114.453C86.3299 114.296 86.2746 114.162 86.1668 114.045Z" fill="#242B31"/>
<path d="M85.0858 124.551C85.085 124.549 85.0838 124.547 85.083 124.545C85.0927 124.561 85.1044 124.576 85.1164 124.592C85.1061 124.579 85.0961 124.565 85.0858 124.551ZM85.8943 124.044C85.8262 123.97 85.7375 123.91 85.6483 123.864C85.4326 123.753 85.1736 123.639 84.9273 123.711C84.7854 123.752 84.6561 123.841 84.5814 123.971C84.5531 124.02 84.536 124.071 84.5265 124.123C84.5108 124.146 84.4959 124.169 84.4833 124.194C84.368 124.424 84.3597 124.693 84.4976 124.918C84.6235 125.123 84.8326 125.269 85.0715 125.304C85.3301 125.342 85.571 125.258 85.7721 125.096C85.9547 124.948 86.0948 124.691 86.0722 124.452C86.0577 124.295 86.0024 124.16 85.8943 124.044Z" fill="#242B31"/>
<path d="M84.8111 134.55C84.8103 134.548 84.8094 134.545 84.8086 134.543C84.8183 134.559 84.8297 134.575 84.8418 134.591C84.8317 134.577 84.8214 134.564 84.8111 134.55ZM85.6199 134.042C85.5515 133.969 85.4631 133.908 85.3739 133.862C85.1579 133.752 84.8993 133.637 84.6527 133.709C84.5108 133.751 84.3814 133.84 84.3068 133.969C84.2785 134.019 84.2613 134.07 84.2519 134.122C84.2361 134.144 84.2212 134.167 84.2089 134.192C84.0936 134.423 84.0853 134.692 84.2229 134.916C84.3491 135.122 84.558 135.267 84.7968 135.302C85.0555 135.34 85.2966 135.256 85.4975 135.094C85.68 134.947 85.8205 134.689 85.7979 134.45C85.783 134.293 85.7278 134.159 85.6199 134.042Z" fill="#242B31"/>
<path d="M65.9007 107.729C65.9007 107.729 74.1232 103.134 75.4543 102.105C76.7855 101.076 65.2942 114.931 65.4728 113.364C65.6513 111.798 65.9007 107.729 65.9007 107.729Z" fill="#7BFAC4"/>
<path d="M72.0292 87.7943C72.0292 87.7943 45.1285 108.928 42.0138 111.872C38.8989 114.817 22.1271 142.364 22.6978 143.505C23.2689 144.647 28.4384 147.85 29.073 147.374C29.7072 146.898 49.2155 120.888 50.167 119.936C51.1186 118.984 76.6538 102.49 77.9226 100.428C79.1914 98.366 72.0292 87.7943 72.0292 87.7943Z" fill="#7BFAC4"/>
<mask id="mask0_98_1727" style="mask-type:luminance" maskUnits="userSpaceOnUse" x="26" y="292" width="416" height="6">
<path d="M442 294.817C442 296.027 348.98 297.008 234.235 297.008C119.491 297.008 26.4717 296.027 26.4717 294.817C26.4717 293.61 119.491 292.628 234.235 292.628C348.98 292.628 442 293.61 442 294.817Z" fill="white"/>
</mask>
<g mask="url(#mask0_98_1727)">
<path d="M442 294.817C442 296.027 348.98 297.008 234.235 297.008C119.491 297.008 26.4717 296.027 26.4717 294.817C26.4717 293.61 119.491 292.628 234.235 292.628C348.98 292.628 442 293.61 442 294.817Z" fill="#FFEEE5"/>
</g>
<path d="M134.571 293.824C132.645 295.541 127.292 294.165 125.044 294.09C119.3 293.899 113.514 294.093 107.765 294.093C96.3746 294.093 84.9835 294.093 73.5924 294.093C70.6425 294.093 61.0718 295.721 58.7854 294.096C56.5118 292.48 57.841 283.92 57.841 280.87C57.841 270.588 57.8407 260.306 57.841 250.024C57.841 246.214 56.2218 235.64 59.3636 234.155C60.5691 233.586 63.4721 234.155 64.7964 234.155C81.7155 234.155 98.6344 234.155 115.554 234.155C119.637 234.155 123.721 234.155 127.805 234.155C133.044 234.155 134.774 232.908 134.815 238.521C134.877 246.937 134.815 255.354 134.815 263.771C134.815 270.614 134.815 277.46 134.815 284.303C134.815 286.455 135.287 289.227 134.815 291.327C134.692 291.876 135.128 293.229 134.721 293.676C134.674 293.73 134.624 293.779 134.571 293.824Z" fill="#FFEEE5"/>
<mask id="mask1_98_1727" style="mask-type:luminance" maskUnits="userSpaceOnUse" x="57" y="233" width="79" height="62">
<path d="M134.57 293.825C132.644 295.541 127.291 294.165 125.043 294.091C119.299 293.899 113.513 294.094 107.764 294.094C96.3736 294.094 84.9825 294.094 73.5914 294.094C70.6416 294.094 61.0708 295.721 58.7844 294.096C56.5109 292.48 57.84 283.92 57.84 280.871C57.84 270.589 57.8397 260.307 57.84 250.025C57.84 246.214 56.2208 235.64 59.3626 234.156C60.5682 233.586 63.4711 234.156 64.7954 234.156C81.7146 234.156 98.6334 234.156 115.553 234.156C119.637 234.156 123.72 234.156 127.804 234.156C133.043 234.156 134.773 232.908 134.814 238.521C134.876 246.938 134.814 255.355 134.814 263.771C134.814 270.614 134.814 277.461 134.814 284.304C134.814 286.455 135.286 289.227 134.814 291.327C134.691 291.876 135.127 293.23 134.72 293.676C134.673 293.73 134.623 293.779 134.57 293.825Z" fill="white"/>
</mask>
<g mask="url(#mask1_98_1727)">
<path d="M56.7137 275.281C56.7137 275.281 61.4353 284.779 71.3565 287.07C81.2777 289.362 138.812 287.725 138.921 288.489C139.03 289.253 145.036 300.39 137.611 299.953C130.187 299.515 58.024 301.701 56.6047 297.441C55.1854 293.184 56.7137 275.281 56.7137 275.281Z" fill="#FFD6C1"/>
</g>
<path d="M209.086 235.351C207.158 237.068 201.806 235.692 199.56 235.614C193.815 235.423 188.028 235.62 182.28 235.62C170.888 235.62 159.499 235.617 148.107 235.62C145.157 235.62 135.587 237.245 133.3 235.62C131.027 234.004 132.356 225.444 132.356 222.397C132.356 212.112 132.356 201.83 132.356 191.548C132.356 187.738 130.736 177.164 133.878 175.68C135.084 175.11 137.987 175.68 139.311 175.68C156.229 175.68 173.148 175.68 190.067 175.68C194.153 175.68 198.235 175.68 202.321 175.68C207.559 175.68 209.29 174.434 209.33 180.046C209.393 188.461 209.33 196.878 209.33 205.295C209.33 212.138 209.33 218.984 209.33 225.827C209.33 227.979 209.802 230.751 209.33 232.854C209.207 233.403 209.644 234.753 209.235 235.202C209.189 235.254 209.138 235.302 209.086 235.351Z" fill="#FFEEE5"/>
<mask id="mask2_98_1727" style="mask-type:luminance" maskUnits="userSpaceOnUse" x="131" y="175" width="79" height="62">
<path d="M209.084 235.35C207.155 237.066 201.803 235.69 199.557 235.613C193.812 235.421 188.025 235.619 182.277 235.619C170.885 235.619 159.496 235.616 148.104 235.619C145.155 235.619 135.584 237.244 133.297 235.619C131.024 234.002 132.353 225.443 132.353 222.396C132.353 212.111 132.353 201.829 132.353 191.547C132.353 187.736 130.733 177.163 133.875 175.679C135.081 175.109 137.984 175.679 139.308 175.679C156.226 175.679 173.145 175.679 190.064 175.679C194.15 175.679 198.232 175.679 202.318 175.679C207.556 175.678 209.287 174.432 209.327 180.045C209.39 188.46 209.327 196.877 209.327 205.293C209.327 212.137 209.327 218.983 209.327 225.826C209.327 227.977 209.799 230.749 209.327 232.852C209.204 233.402 209.641 234.752 209.232 235.201C209.187 235.252 209.135 235.301 209.084 235.35Z" fill="white"/>
</mask>
<g mask="url(#mask2_98_1727)">
<path d="M130.041 214.099C130.041 214.099 142.58 228.049 150.296 229.826C158.012 231.599 211.473 231.599 211.473 231.599L212.025 239.041C212.025 239.041 128.112 240.279 127.699 239.041C127.285 237.799 130.041 214.099 130.041 214.099Z" fill="#FFD6C1"/>
</g>
<path d="M283.6 176.874C281.675 178.59 276.322 177.214 274.074 177.139C268.329 176.946 262.542 177.143 256.794 177.143C245.405 177.143 234.013 177.142 222.621 177.143C219.671 177.143 210.102 178.77 207.816 177.145C205.542 175.528 206.869 166.967 206.869 163.92C206.869 153.637 206.869 143.354 206.869 133.072C206.869 129.261 205.25 118.688 208.394 117.204C209.598 116.634 212.502 117.204 213.827 117.204C230.746 117.204 247.665 117.204 264.584 117.204C268.667 117.204 272.752 117.204 276.834 117.204C282.073 117.203 283.804 115.957 283.844 121.57C283.907 129.985 283.844 138.403 283.844 146.819C283.844 153.663 283.844 160.507 283.844 167.352C283.844 169.503 284.316 172.274 283.844 174.376C283.721 174.925 284.158 176.278 283.752 176.725C283.703 176.777 283.652 176.826 283.6 176.874Z" fill="#FFEEE5"/>
<mask id="mask3_98_1727" style="mask-type:luminance" maskUnits="userSpaceOnUse" x="206" y="116" width="79" height="62">
<path d="M283.598 176.875C281.673 178.592 276.32 177.216 274.072 177.141C268.327 176.948 262.54 177.145 256.792 177.145C245.403 177.145 234.011 177.143 222.619 177.144C219.669 177.145 210.1 178.772 207.814 177.146C205.54 175.53 206.867 166.969 206.867 163.921C206.867 153.639 206.867 143.356 206.867 133.073C206.867 129.263 205.248 118.689 208.392 117.205C209.596 116.636 212.5 117.205 213.825 117.205C230.744 117.205 247.663 117.205 264.582 117.205C268.665 117.205 272.75 117.206 276.832 117.205C282.071 117.205 283.802 115.959 283.842 121.572C283.905 129.987 283.842 138.405 283.842 146.82C283.842 153.665 283.842 160.509 283.842 167.353C283.842 169.505 284.314 172.276 283.842 174.378C283.719 174.927 284.156 176.28 283.75 176.727C283.701 176.779 283.65 176.828 283.598 176.875Z" fill="white"/>
</mask>
<g mask="url(#mask3_98_1727)">
<path d="M206.867 163.921C206.867 163.921 217.812 172.804 227.525 173.478C237.235 174.152 287.947 169.297 287.947 169.297C287.947 169.297 289.025 179.547 287.274 179.952C285.521 180.356 208.037 181.57 206.452 179.682C204.864 177.794 206.867 163.921 206.867 163.921Z" fill="#FFD6C1"/>
</g>
<path d="M358.114 118.398C356.188 120.115 350.835 118.739 348.587 118.664C342.842 118.471 337.058 118.668 331.307 118.668C319.918 118.668 308.526 118.666 297.134 118.668C294.185 118.668 284.615 120.295 282.329 118.669C280.055 117.053 281.385 108.492 281.385 105.444C281.385 95.1618 281.385 84.879 281.385 74.5965C281.385 70.7861 279.766 60.2111 282.907 58.7292C284.111 58.1599 287.015 58.7292 288.34 58.7292C305.259 58.7292 322.178 58.7292 339.097 58.7292C343.18 58.7292 347.265 58.7292 351.348 58.7292C356.586 58.7292 358.317 57.4819 358.357 63.0949C358.42 71.5102 358.357 79.928 358.357 88.3432C358.357 95.1876 358.357 102.032 358.357 108.876C358.357 111.028 358.829 113.799 358.357 115.901C358.234 116.45 358.671 117.803 358.265 118.25C358.217 118.302 358.168 118.351 358.114 118.398Z" fill="#FFEEE5"/>
<mask id="mask4_98_1727" style="mask-type:luminance" maskUnits="userSpaceOnUse" x="280" y="58" width="79" height="62">
<path d="M358.111 118.399C356.185 120.115 350.833 118.74 348.584 118.664C342.839 118.471 337.055 118.668 331.304 118.668C319.915 118.668 308.523 118.667 297.131 118.668C294.182 118.668 284.612 120.295 282.326 118.67C280.052 117.053 281.382 108.493 281.382 105.445C281.382 95.1623 281.382 84.8795 281.382 74.597C281.382 70.7866 279.763 60.2116 282.904 58.7297C284.109 58.1604 287.012 58.7297 288.337 58.7297C305.256 58.7297 322.175 58.7297 339.094 58.7297C343.177 58.7297 347.262 58.7297 351.345 58.7297C356.583 58.7297 358.314 57.4824 358.354 63.0954C358.417 71.5107 358.354 79.9285 358.354 88.3437C358.354 95.1881 358.354 102.032 358.354 108.877C358.354 111.028 358.826 113.799 358.354 115.901C358.231 116.45 358.668 117.803 358.262 118.25C358.214 118.302 358.165 118.352 358.111 118.399Z" fill="white"/>
</mask>
<g mask="url(#mask4_98_1727)">
<path d="M279.109 101.488C279.109 101.488 283.086 112.096 307.617 113.422C332.147 114.748 361.096 113.864 361.096 113.864C361.096 113.864 362.003 122.261 358.567 122.483C355.128 122.704 278.731 125.993 277.782 121.599C276.832 117.204 279.109 101.488 279.109 101.488Z" fill="#FFD6C1"/>
</g>
<path d="M432.627 59.9222C430.702 61.6387 425.349 60.2626 423.101 60.1882C417.356 59.9937 411.571 60.1911 405.824 60.1911C394.432 60.1911 383.04 60.1911 371.651 60.1911C368.701 60.1911 359.129 61.8189 356.843 60.194C354.568 58.5776 355.899 50.0179 355.899 46.9682C355.899 36.6862 355.899 26.4042 355.899 16.1194C355.899 12.3116 354.279 1.73781 357.421 0.253018C358.625 -0.316295 361.529 0.253018 362.853 0.253018C379.773 0.253018 396.692 0.253018 413.611 0.253018C417.693 0.253018 421.779 0.253018 425.861 0.253018C431.099 0.253018 432.83 -0.994301 432.873 4.61872C432.933 13.0354 432.873 21.4521 432.873 29.8687C432.873 36.7119 432.873 43.5552 432.873 50.4012C432.873 52.5526 433.345 55.3248 432.873 57.4246C432.75 57.9739 433.185 59.3271 432.779 59.7734C432.73 59.8249 432.682 59.8764 432.627 59.9222Z" fill="#FFEEE5"/>
<path d="M342.396 70.0116C342.488 69.478 342.065 69 341.527 69.0286C336.806 69.2772 315.19 70.5428 317.001 72.6788C317.876 73.7124 319.833 75.1548 321.827 76.5472C313.791 83.2254 296.485 97.6553 297.143 97.5243C298.002 97.3538 306.135 109.32 306.719 108.826C307.159 108.452 323.412 94.684 331.251 88.0454C332.538 90.4991 333.697 92.6116 333.863 92.5852C334.895 92.4228 341.598 74.6645 342.396 70.0116Z" fill="#FFCEB2"/>
<path d="M267.883 129.62C267.974 129.087 267.551 128.607 267.01 128.636C262.293 128.886 240.676 130.152 242.484 132.287C243.362 133.321 245.319 134.764 247.31 136.156C239.277 142.834 221.972 157.264 222.63 157.133C223.485 156.962 231.621 168.928 232.205 168.435C232.645 168.061 248.898 154.293 256.734 147.654C258.024 150.108 259.183 152.22 259.349 152.194C260.382 152.031 267.085 134.273 267.883 129.62Z" fill="#FFCEB2"/>
<path d="M193.368 189.228C193.46 188.696 193.036 188.215 192.496 188.244C187.778 188.495 166.161 189.76 167.969 191.897C168.845 192.93 170.804 194.372 172.796 195.765C164.762 202.442 147.457 216.872 148.115 216.741C148.97 216.572 157.107 228.536 157.69 228.044C158.131 227.669 174.383 213.9 182.219 207.263C183.51 209.717 184.665 211.829 184.834 211.803C185.867 211.64 192.57 193.882 193.368 189.228Z" fill="#FFCEB2"/>
<path d="M118.853 248.837C118.945 248.305 118.522 247.824 117.982 247.853C113.262 248.102 91.6464 249.369 93.4556 251.503C94.3313 252.539 96.2898 253.981 98.2818 255.374C90.2471 262.052 72.9423 276.482 73.6003 276.35C74.4565 276.178 82.592 288.146 83.1747 287.653C83.6162 287.279 99.8688 273.509 107.705 266.872C108.994 269.324 110.152 271.438 110.319 271.412C111.353 271.249 118.055 253.489 118.853 248.837Z" fill="#FFCEB2"/>
<path d="M394.283 56.3464C380.008 56.3464 368.393 44.7342 368.393 30.4584C368.393 16.1827 380.008 4.57043 394.283 4.57043C408.556 4.57043 420.171 16.1827 420.171 30.4584C420.171 44.7342 408.556 56.3464 394.283 56.3464Z" fill="#0D6ECD"/>
<path d="M394.284 51.4657C382.7 51.4657 373.276 42.042 373.276 30.4583C373.276 18.8747 382.7 9.45096 394.284 9.45096C405.865 9.45096 415.288 18.8747 415.288 30.4583C415.288 42.042 405.865 51.4657 394.284 51.4657Z" fill="white"/>
<path d="M394.284 46.5823C385.392 46.5823 378.157 39.3501 378.157 30.4585C378.157 21.5669 385.392 14.3318 394.284 14.3318C403.173 14.3318 410.408 21.5669 410.408 30.4585C410.408 39.3501 403.173 46.5823 394.284 46.5823Z" fill="#0D6ECD"/>
<path d="M394.283 41.7016C388.081 41.7016 383.037 36.6579 383.037 30.4584C383.037 24.2589 388.081 19.2152 394.283 19.2152C400.483 19.2152 405.524 24.2589 405.524 30.4584C405.524 36.6579 400.483 41.7016 394.283 41.7016Z" fill="white"/>
<path d="M400.643 30.4586C400.643 33.9717 397.797 36.8183 394.281 36.8183C390.767 36.8183 387.921 33.9717 387.921 30.4586C387.921 26.9454 390.767 24.096 394.281 24.096C397.797 24.096 400.643 26.9454 400.643 30.4586Z" fill="#0D6ECD"/>
</svg>
