<svg width="554" height="376" viewBox="0 0 554 376" fill="none" xmlns="http://www.w3.org/2000/svg">
<path d="M458.933 329.597H65.9534C63.002 329.597 60.6094 327.204 60.6094 324.249V28.4652C60.6094 25.5106 63.002 23.1148 65.9534 23.1148H458.933C461.885 23.1148 464.279 25.5106 464.279 28.4652V324.249C464.279 327.204 461.885 329.597 458.933 329.597Z" fill="#0D6ECD" fill-opacity="0.2"/>
<path d="M83.2724 40.7989C83.2724 43.4693 81.1095 45.6343 78.4414 45.6343C75.7733 45.6343 73.6104 43.4693 73.6104 40.7989C73.6104 38.1261 75.7733 35.9612 78.4414 35.9612C81.1095 35.9612 83.2724 38.1261 83.2724 40.7989Z" fill="#0D6ECD"/>
<path d="M97.8545 40.7989C97.8545 43.4693 95.6915 45.6343 93.0234 45.6343C90.3553 45.6343 88.1924 43.4693 88.1924 40.7989C88.1924 38.1261 90.3553 35.9612 93.0234 35.9612C95.6915 35.9612 97.8545 38.1261 97.8545 40.7989Z" fill="#EAEDF7"/>
<path d="M112.436 40.7989C112.436 43.4693 110.274 45.6343 107.605 45.6343C104.937 45.6343 102.774 43.4693 102.774 40.7989C102.774 38.1261 104.937 35.9612 107.605 35.9612C110.274 35.9612 112.436 38.1261 112.436 40.7989Z" fill="#EAEDF7"/>
<path d="M397.231 301.703H344.644V97.6202C344.644 95.0956 346.69 93.0473 349.212 93.0473H392.663C395.185 93.0473 397.231 95.0956 397.231 97.6202V301.703Z" fill="#0D6ECD"/>
<path d="M299.608 301.703H247.022V139.765C247.022 137.238 249.066 135.192 251.589 135.192H295.039C297.561 135.192 299.608 137.238 299.608 139.765V301.703Z" fill="#0D6ECD"/>
<path d="M200.771 301.703H148.186V185.149C148.186 182.622 150.231 180.577 152.754 180.577H196.204C198.727 180.577 200.771 182.622 200.771 185.149V301.703Z" fill="#0D6ECD"/>
<path d="M249.275 248.295C247.109 248.298 244.966 248.113 242.847 247.746C231.576 245.798 222.293 238.795 213.316 232.02C205.569 226.177 197.561 220.134 188.283 217.323C169.191 211.537 146.789 216.095 131.211 228.935C131.014 229.097 130.721 229.068 130.559 228.871C130.396 228.672 130.424 228.381 130.622 228.218C146.432 215.187 169.172 210.56 188.552 216.433C197.988 219.293 206.065 225.387 213.874 231.279C231.954 244.923 237.572 245.892 243.004 246.833C252.557 248.485 262.624 246.31 272.931 240.372C280.612 235.945 288.38 229.571 297.374 220.318C305.237 212.23 312.963 203.742 320.438 195.537C329.126 185.995 338.108 176.13 347.364 166.821C355.253 158.888 363.951 150.763 374.094 145.089C385.221 138.866 397.073 136.427 407.462 138.225C407.715 138.268 407.882 138.509 407.839 138.762C407.795 139.014 407.56 139.185 407.305 139.141C397.124 137.377 385.488 139.777 374.545 145.9C364.502 151.518 355.863 159.59 348.022 167.475C338.78 176.769 329.803 186.627 321.122 196.161C313.643 204.374 305.911 212.864 298.039 220.965C288.982 230.283 281.151 236.705 273.392 241.176C265.173 245.912 257.086 248.295 249.275 248.295Z" fill="#7BFAC4"/>
<path d="M177.723 214.762C177.723 217.201 175.747 219.181 173.308 219.181C170.87 219.181 168.893 217.201 168.893 214.762C168.893 212.32 170.87 210.342 173.308 210.342C175.747 210.342 177.723 212.32 177.723 214.762Z" fill="#7BFAC4"/>
<path d="M279.632 239.057C279.632 241.499 277.654 243.477 275.216 243.477C272.777 243.477 270.801 241.499 270.801 239.057C270.801 236.615 272.777 234.638 275.216 234.638C277.654 234.638 279.632 236.615 279.632 239.057Z" fill="#7BFAC4"/>
<path d="M376.958 145.881C376.958 148.321 374.982 150.301 372.543 150.301C370.105 150.301 368.127 148.321 368.127 145.881C368.127 143.439 370.105 141.461 372.543 141.461C374.982 141.461 376.958 143.439 376.958 145.881Z" fill="#7BFAC4"/>
<path d="M80.228 225.618C80.2911 226.969 80.045 228.376 79.2638 229.479C78.4831 230.58 77.0967 231.309 75.7701 231.058C75.4463 230.995 75.1292 230.879 74.8649 230.679C74.1155 230.12 73.9412 229.083 73.8783 228.15C73.762 226.427 73.8237 224.695 74.0621 222.986C74.2551 221.601 74.7595 219.512 76.5054 219.449C78.1425 219.39 79.0567 221.281 79.5643 222.564C79.9498 223.536 80.1792 224.571 80.228 225.618Z" fill="#2F313E"/>
<path d="M129.219 302.194C129.219 302.194 138.529 343.36 138.529 361.275L133.874 362.174C133.874 362.174 120.969 328.21 115.38 316.284L129.219 302.194Z" fill="#2F313E"/>
<path d="M86.2803 236.122C86.2803 236.122 93.9547 232.971 97.2598 229.117C100.565 225.263 107.865 196.808 107.865 196.808L112.959 198.428C112.959 198.428 113.939 234.718 103.354 242.109C93.3427 249.102 92.3158 249.476 92.3158 249.476L86.2803 236.122Z" fill="#DA8C8D"/>
<path d="M115.045 191.151C114.962 189.239 111.982 186.496 110.493 186.578C109.678 186.624 108.904 189.927 108.369 192.913C107.954 191.703 107.029 190.49 106.758 190.736C106.466 191.003 107.513 195.377 107.796 196.528C107.699 197.218 107.645 197.651 107.645 197.651V198.428H112.958C112.958 198.428 115.128 193.066 115.045 191.151Z" fill="#DA8C8D"/>
<path d="M71.0859 242.775C71.0859 242.775 94.055 231.982 95.3314 230.429C96.6078 228.877 101.042 219.157 101.042 219.157L111.737 220.678C111.737 220.678 111.035 236.854 103.934 242.775C96.8331 248.697 81.8178 263.13 81.8178 263.13L71.0859 242.775Z" fill="#0D6ECD"/>
<path d="M53.4697 297.587C53.4697 297.587 120.956 291.048 128.207 300.048C135.459 309.048 114.559 368.333 114.559 368.333H109.562C109.562 368.333 110.583 331.813 110.294 318.699C110.294 318.699 76.1024 334.34 64.9058 326.82C53.7093 319.3 53.4697 297.587 53.4697 297.587Z" fill="#2F313E"/>
<path d="M53.9418 297.519C53.9418 297.519 49.1528 298.111 49.4011 288.798C49.6497 279.487 43.9015 251.879 66.0557 243.2C85.6913 235.505 85.3801 275.436 85.3801 275.436L91.603 297.02L53.9418 297.519Z" fill="#0D6ECD"/>
<path d="M77.1277 224.85C77.1277 224.85 83.2007 238.953 75.5819 239.558C67.9631 240.165 62.204 232.057 64.0504 226.174C65.8967 220.294 73.7425 215.43 77.1277 224.85Z" fill="#DA8C8D"/>
<path d="M63.7197 229.294C63.7197 229.294 65.209 237.155 64.4072 244.379C64.2749 245.569 65.0702 246.454 65.9943 247.212C67.3202 248.3 70.6377 249.476 72.9929 249.102C76.6716 248.517 70.9152 232.949 70.9152 232.949L63.7197 229.294Z" fill="#DA8C8D"/>
<path d="M72.9817 239.412C72.9817 239.412 71.5924 239.488 68.9707 237.323C68.9707 237.323 69.9985 241.3 73.6155 242.012C73.6155 242.012 73.023 239.548 72.9817 239.412Z" fill="#C17276"/>
<path d="M71.1314 282.41L85.38 288.993L83.7256 297.057L65.8942 293.942C65.2732 293.835 64.7625 293.393 64.5683 292.79C63.8026 290.416 62.6478 284.427 69.526 282.291C70.0552 282.128 70.6281 282.177 71.1314 282.41Z" fill="#DA8C8D"/>
<path d="M64.4073 244.379C64.4073 244.379 40.8976 249.768 44.1986 274.025C46.6317 291.904 56.5217 290.2 56.5217 290.2L64.4073 244.379Z" fill="#0D6ECD"/>
<path d="M84.1055 260.952C84.1055 260.952 81.859 252.285 79.917 249.102C79.917 249.102 85.998 255.667 85.9247 259.198C85.9247 259.198 85.7249 259.429 84.1055 260.952Z" fill="#005AB1"/>
<path d="M63.9932 288.883C63.9932 288.883 70.8614 294.088 84.0997 295.293L83.7261 297.057L65.6119 293.894C65.1873 293.821 64.8404 293.514 64.7088 293.104C64.4005 292.139 63.9029 290.322 63.9932 288.883Z" fill="#C17276"/>
<path d="M123.612 297.142H83.7256L89.0096 270.971H128.896L123.612 297.142Z" fill="#2F313E"/>
<path d="M110.079 285.148C109.4 286.871 107.459 288.266 105.745 288.266C104.031 288.266 103.192 286.871 103.871 285.148C104.551 283.426 106.491 282.031 108.205 282.031C109.919 282.031 110.758 283.426 110.079 285.148Z" fill="#F5F9FD"/>
<path d="M65.611 293.893C65.611 293.893 54.4618 290.742 49.3963 287.245C49.3963 287.245 49.3186 290.198 49.4747 291.381C49.4747 291.381 47.5565 293.896 65.611 293.893Z" fill="#005AB1"/>
<path d="M34.0619 265.948H30.8037L47.352 313.915C51.0588 327.998 61.1493 330.921 72.0674 329.891L99.6301 327.289C99.6301 327.289 102.019 318.573 91.6025 314.552C81.1857 310.528 59.1228 310.112 59.1228 310.112L44.3918 273.293C42.8474 268.891 38.7075 265.948 34.0619 265.948Z" fill="#7BFAC4"/>
<path d="M36.8739 373.885C36.7285 374.393 36.2677 374.724 35.7672 374.724C35.6616 374.724 35.5543 374.709 35.4477 374.677C34.8365 374.502 34.4835 373.861 34.6595 373.246L48.2474 325.848C49.1524 322.692 52.0686 320.488 55.3392 320.488H86.4985C89.9255 320.488 92.8769 322.825 93.6755 326.173L104.916 373.297C105.065 373.917 104.683 374.541 104.064 374.692C103.448 374.843 102.823 374.456 102.675 373.837L91.4347 326.713C90.8853 324.409 88.8556 322.801 86.4985 322.801H55.3392C53.0898 322.801 51.0842 324.317 50.4615 326.489" fill="#2F313E"/>
<path d="M132.783 360.133L138.615 359.173L139.731 361.442C139.731 361.442 149.095 361.185 153.052 364.271L135.447 367.167L132.783 360.133Z" fill="#2F313E"/>
<path d="M109.32 367.366H115.279L114.769 369.75C114.769 369.75 123.105 371.052 126.509 374.741H109.188L109.32 367.366Z" fill="#2F313E"/>
<path d="M58.4453 275.806C58.4453 275.806 63.1766 265.302 58.4453 255.026C58.4453 255.026 66.6669 267.265 58.4453 275.806Z" fill="#005AB1"/>
<path d="M73.0178 226.505C71.3738 228.138 69.3612 229.503 68.3142 231.571C67.2638 233.646 67.3589 236.083 67.2623 238.406C67.1062 242.163 66.3539 245.973 64.4396 249.207C62.525 252.443 59.3287 255.046 55.6184 255.631C51.9079 256.217 47.7784 254.477 46.1049 251.112C44.7736 248.432 45.1084 245.183 46.2052 242.401C47.3019 239.616 49.0879 237.174 50.6937 234.65C52.0674 232.492 53.3246 230.252 54.9193 228.25C56.8875 225.783 59.3255 223.737 61.7455 221.711C64.0063 219.818 66.3974 217.862 69.2871 217.279C71.0175 216.931 73.1452 217.327 74.3218 218.734C74.7673 219.269 75.2962 219.886 75.4438 220.583C75.6395 221.509 75.4778 222.542 75.1411 223.412C74.6874 224.585 73.9048 225.625 73.0178 226.505Z" fill="#2F313E"/>
<path d="M142.283 166.45C142.283 181.507 130.089 193.712 115.047 193.712C100.005 193.712 87.8105 181.507 87.8105 166.45C87.8105 151.394 100.005 139.19 115.047 139.19C130.089 139.19 142.283 151.394 142.283 166.45Z" fill="#EAEDF7"/>
<mask id="mask0_92_754" style="mask-type:luminance" maskUnits="userSpaceOnUse" x="87" y="139" width="56" height="55">
<path d="M142.284 166.449C142.284 181.507 130.09 193.712 115.048 193.712C100.006 193.712 87.8115 181.507 87.8115 166.449C87.8115 151.394 100.006 139.189 115.048 139.189C130.09 139.189 142.284 151.394 142.284 166.449Z" fill="white"/>
</mask>
<g mask="url(#mask0_92_754)">
<path d="M115.049 166.449L86.2809 181.441L82.9238 161.099L89.886 143.981L115.049 166.449Z" fill="#2F313E"/>
<path d="M115.049 166.449L128.779 134.32L94.4529 139.189L89.3369 151.066L115.049 166.449Z" fill="#0D6ECD"/>
</g>
<path d="M107.5 195.289C107.5 195.289 105.133 187.958 106.167 188.687C107.2 189.419 109.45 193.557 109.45 193.557L107.5 195.289Z" fill="#DA8C8D"/>
<path d="M345.9 48.9534H133.062C128.94 48.9534 125.599 45.6099 125.599 41.4841C125.599 37.3558 128.94 34.0124 133.062 34.0124H345.9C350.022 34.0124 353.362 37.3558 353.362 41.4841C353.362 45.6099 350.022 48.9534 345.9 48.9534Z" fill="#EAEDF7"/>
<mask id="mask1_92_754" style="mask-type:luminance" maskUnits="userSpaceOnUse" x="125" y="34" width="229" height="15">
<path d="M345.902 48.9529H133.064C128.942 48.9529 125.601 45.6094 125.601 41.4836C125.601 37.3554 128.942 34.012 133.064 34.012H345.902C350.024 34.012 353.364 37.3554 353.364 41.4836C353.364 45.6094 350.024 48.9529 345.902 48.9529Z" fill="white"/>
</mask>
<g mask="url(#mask1_92_754)">
<path d="M362.121 52.8989H331.848V29.1475H362.121V52.8989Z" fill="#0D6ECD"/>
</g>
<path d="M343.663 37.6425C345.406 38.7772 345.899 41.1098 344.765 42.852C343.631 44.5941 341.301 45.0874 339.56 43.9527C337.817 42.818 337.325 40.4853 338.458 38.7432C339.592 37.001 341.922 36.5077 343.663 37.6425Z" fill="#EAEDF7"/>
<path d="M347.58 45.1362C347.498 45.1362 347.413 45.1144 347.335 45.0633L345.043 43.5714C344.835 43.4354 344.776 43.1559 344.912 42.9494C345.046 42.7404 345.325 42.6821 345.534 42.8158L347.825 44.3101C348.034 44.4462 348.092 44.7256 347.956 44.9321C347.871 45.0658 347.728 45.1362 347.58 45.1362Z" fill="#EAEDF7"/>
<path d="M255.358 101.899H130.575C127.827 101.899 125.599 99.6688 125.599 96.9183V64.9759C125.599 62.2254 127.827 59.9948 130.575 59.9948H255.358C258.106 59.9948 260.334 62.2254 260.334 64.9759V96.9183C260.334 99.6688 258.106 101.899 255.358 101.899Z" fill="#EAEDF7"/>
<path d="M143.96 71.8665C143.96 74.8114 141.577 77.1951 138.637 77.1951C135.697 77.1951 133.313 74.8114 133.313 71.8665C133.313 68.924 135.697 66.5403 138.637 66.5403C141.577 66.5403 143.96 68.924 143.96 71.8665Z" fill="#CAD2EA"/>
<path d="M143.96 90.1267C143.96 93.0692 141.577 95.4529 138.637 95.4529C135.697 95.4529 133.313 93.0692 133.313 90.1267C133.313 87.1842 135.697 84.7981 138.637 84.7981C141.577 84.7981 143.96 87.1842 143.96 90.1267Z" fill="#CAD2EA"/>
<path d="M166.434 70.936H151.984C151.347 70.936 150.831 70.4185 150.831 69.7819C150.831 69.1428 151.347 68.6277 151.984 68.6277H166.434C167.071 68.6277 167.587 69.1428 167.587 69.7819C167.587 70.4185 167.071 70.936 166.434 70.936Z" fill="#CAD2EA"/>
<path d="M203.1 75.1079H151.984C151.347 75.1079 150.831 74.5928 150.831 73.9537C150.831 73.3171 151.347 72.7996 151.984 72.7996H203.1C203.738 72.7996 204.253 73.3171 204.253 73.9537C204.253 74.5928 203.738 75.1079 203.1 75.1079Z" fill="#CAD2EA"/>
<path d="M180.125 88.9724H151.984C151.347 88.9724 150.831 88.4549 150.831 87.8182C150.831 87.1792 151.347 86.6641 151.984 86.6641H180.125C180.762 86.6641 181.278 87.1792 181.278 87.8182C181.278 88.4549 180.762 88.9724 180.125 88.9724Z" fill="#CAD2EA"/>
<path d="M240.375 93.1443H151.984C151.347 93.1443 150.831 92.6292 150.831 91.9901C150.831 91.3535 151.347 90.836 151.984 90.836H240.375C241.011 90.836 241.528 91.3535 241.528 91.9901C241.528 92.6292 241.011 93.1443 240.375 93.1443Z" fill="#CAD2EA"/>
<path d="M552.241 375.315H1.1677C0.522851 375.315 0 374.592 0 373.701C0 372.808 0.522851 372.085 1.1677 372.085H552.241C552.885 372.085 553.408 372.808 553.408 373.701C553.408 374.592 552.885 375.315 552.241 375.315Z" fill="#2F313E"/>
<path d="M478 248.82L436.071 245.56C432.539 245.285 429.901 242.197 430.175 238.661L448.248 5.924C448.522 2.38862 451.608 -0.255023 455.14 0.0195467L497.068 3.28276C500.6 3.55733 503.239 6.64563 502.964 10.181L484.891 242.918C484.617 246.454 481.532 249.095 478 248.82Z" fill="#2F313E"/>
<path d="M509.318 168.153C509.318 168.153 499.955 182.955 508.458 184.996C516.965 187.035 524.912 178.927 523.866 171.975C522.82 165.023 514.811 158.147 509.318 168.153Z" fill="#DA8C8D"/>
<path d="M523.687 175.547C523.687 175.547 520.043 185.723 520.208 194.597C520.208 194.597 513.173 197.267 509.119 195.952C505.065 194.638 514.906 178.382 514.906 178.382L523.687 175.547Z" fill="#DA8C8D"/>
<path d="M511.138 185.314C511.138 185.314 512.514 185.331 516.389 183.725C516.389 183.725 515.012 187.29 509.997 187.802C509.997 187.802 510.689 186.221 511.138 185.314Z" fill="#C17276"/>
<path d="M519.717 170.556C516.275 170.247 513.138 168.515 510.194 166.7C508.934 165.922 507.659 165.096 506.764 163.915C505.283 161.964 505.106 159.068 506.46 157.027C507.057 156.125 508.011 155.37 509.092 155.37C510.172 155.37 511.24 156.397 510.992 157.45C516.77 158.536 521.987 162.115 525.084 167.12C525.817 168.304 526.439 169.582 526.701 170.952C527.119 173.146 526.572 175.437 525.592 177.447C524.608 179.454 523.213 181.223 521.826 182.975C521.708 183.118 519.957 182.134 519.778 182.042C519.494 181.893 519.219 181.699 519.069 181.417C518.875 181.058 518.918 180.615 519.045 180.227C519.258 179.566 519.549 178.868 519.979 178.317C520.462 177.692 521.164 177.287 521.676 176.689C522.601 175.615 522.06 174.366 520.763 174.009C520.431 173.916 518.282 173.54 518.098 174.057C518.501 172.927 519.156 171.618 519.717 170.556Z" fill="#2F313E"/>
<path d="M488.365 249.562C488.365 249.562 490.785 292.207 491.147 307.544C491.509 322.881 503.28 369.218 503.28 369.218L505.907 369.609L508.106 367.789L513.684 309.736C513.684 309.736 531.396 249.411 513.056 237.405L488.365 249.562Z" fill="#2F313E"/>
<path d="M508.57 367.111L502.248 367.252L502.651 370.277C502.651 370.277 495.713 371.091 492.383 374.86L508.451 374.872L508.57 367.111Z" fill="#2F313E"/>
<path d="M503.964 263.625L487.508 247.355C487.508 247.355 460.055 275.816 453.802 291.323C448.92 303.428 453.472 349.825 453.472 349.825L457.965 349.276L472.054 303.047C472.054 303.047 504.773 278.615 503.964 263.625Z" fill="#2F313E"/>
<path d="M459.07 347.483L452.824 346.509L452.688 349.558C452.688 349.558 445.714 349.14 441.776 352.262L457.66 354.741L459.07 347.483Z" fill="#2F313E"/>
<path d="M483.424 248.988C483.424 248.988 489.502 199.379 502.22 192.509C514.938 185.64 519.946 187.526 519.946 187.526C519.946 187.526 533.028 201.276 519.356 230.062C516.358 236.372 524.354 241.504 521.497 248.689C517.654 258.348 486.968 256.989 483.424 248.988Z" fill="#0D6ECD"/>
<path d="M498.969 195.819L477.335 213.044L441.776 220.11L444.956 227.98C444.956 227.98 473.453 230.655 493.672 224.556C502.394 219.451 510.133 213.029 513.512 205.305C523.395 182.705 498.969 195.819 498.969 195.819Z" fill="#0D6ECD"/>
<path d="M487.417 226.128C487.417 226.128 490.942 225.084 493.673 224.556C496.401 224.031 505.771 215.772 509.998 211.868C509.998 211.868 498.617 227.977 495.399 229.54C492.18 231.102 486.099 232.514 486.099 232.514C486.099 232.514 486.752 228.575 487.417 226.128Z" fill="#005AB1"/>
<path d="M490.325 286.924L489.143 265.435L478.449 297.915C478.449 297.915 488.545 289.641 490.325 286.924Z" fill="#2F313E"/>
<path d="M442.616 222.19C442.616 222.19 438.587 220.447 438.373 220.802C438.264 220.984 439.019 221.594 439.854 222.146C437.31 222.185 433.834 222.474 433.181 223.718C432.127 225.723 438.895 227.956 444.367 226.522L442.616 222.19Z" fill="#DA8C8D"/>
<path d="M321.797 344.057C321.797 344.057 311.488 299.118 319.851 291.495C328.216 283.873 361.723 288.064 365.529 293.782C369.338 299.497 371.472 337.608 371.472 337.608C371.472 337.608 356.191 357.316 346.493 357.044C336.792 356.772 321.797 344.057 321.797 344.057Z" fill="#0D6ECD"/>
<path d="M341.735 273.247C341.735 274.387 342.658 275.31 343.796 275.31C344.935 275.31 345.86 274.387 345.86 273.247C345.86 272.108 344.935 271.182 343.796 271.182C342.658 271.182 341.735 272.108 341.735 273.247Z" fill="#F1A29F"/>
<path d="M335.38 273.245C336.173 273.534 337.023 273.643 337.863 273.728C341.101 274.049 344.694 273.891 347.131 271.733C347.435 271.464 347.736 271.092 347.643 270.698C347.609 270.545 347.517 270.414 347.427 270.288C345.014 266.932 341.257 264.612 337.212 263.827C335.159 263.431 332.775 263.285 330.804 264.096C328.825 264.91 328.791 266.643 329.82 268.293C330.493 269.372 331.415 270.295 332.328 271.17C333.217 272.025 334.207 272.817 335.38 273.245Z" fill="#2F313E"/>
<path d="M333.85 259.298C332.236 259.876 330.699 260.739 329.495 261.961C326.179 265.331 326.065 271.082 328.606 275.07C331.146 279.057 335.845 281.329 340.55 281.754C342.905 281.965 345.446 281.708 347.313 280.257C348.432 279.387 349.221 278.155 349.823 276.87C353.666 268.662 349.978 259.519 340.521 258.532C338.528 258.326 336.493 258.491 334.573 259.062C334.331 259.135 334.09 259.215 333.85 259.298Z" fill="#2F313E"/>
<path d="M330.49 275.04C330.49 275.04 335.882 288.728 341.467 283.989C347.053 279.251 345.495 269.845 340.271 267.1C335.047 264.352 326.434 266.351 330.49 275.04Z" fill="#DA8C8D"/>
<mask id="mask2_92_754" style="mask-type:luminance" maskUnits="userSpaceOnUse" x="329" y="265" width="16" height="20">
<path d="M330.491 275.041C330.491 275.041 335.883 288.728 341.468 283.99C347.054 279.252 345.496 269.846 340.272 267.1C335.048 264.352 326.435 266.352 330.491 275.041Z" fill="white"/>
</mask>
<g mask="url(#mask2_92_754)">
<path d="M334.307 275.779C334.788 275.067 335.101 274.219 335.764 273.675C336.645 272.951 337.89 272.961 339.027 272.841C340.075 272.73 341.109 272.477 342.092 272.091C342.901 271.775 343.712 271.333 344.161 270.589C344.641 269.792 344.61 268.755 344.234 267.902C343.86 267.049 343.178 266.364 342.42 265.822C340.867 264.706 338.976 264.133 337.077 263.929C335.89 263.803 334.681 263.815 333.521 264.094C330.635 264.791 328.28 267.195 327.433 270.042C326.799 272.176 326.92 274.727 327.884 276.751C328.185 277.383 328.656 277.925 329.362 278.08C330.105 278.245 330.902 278.015 331.601 277.772C332.688 277.397 333.659 276.744 334.307 275.779Z" fill="#C17276"/>
</g>
<path d="M344.983 275.31C344.983 275.31 346.561 280.829 347.775 287.98C348.398 291.675 341.261 293.199 338.795 293.165C335.227 293.116 338.545 277.563 338.545 277.563L344.983 275.31Z" fill="#DA8C8D"/>
<path d="M337.411 284.636C337.411 284.636 338.739 284.514 340.926 282.101C340.926 282.101 340.499 286.016 337.166 287.187C337.166 287.187 337.392 284.769 337.411 284.636Z" fill="#C17276"/>
<path d="M343.077 271.019C342.412 269.391 341.711 267.712 340.453 266.483C339.252 265.312 337.579 264.639 335.902 264.648C334.659 264.658 333.426 265.042 332.387 265.725C332.078 265.929 331.124 266.488 331.212 266.932C331.258 267.17 331.573 267.341 331.743 267.479C331.981 267.671 332.202 267.887 332.438 268.084C333.372 268.859 334.416 269.503 335.523 269.999C336.632 270.492 337.81 270.839 339.009 271.027C340.203 271.211 341.422 271.236 342.621 271.085C342.774 271.065 342.927 271.044 343.077 271.019Z" fill="#2F313E"/>
<path d="M319.851 291.495C319.851 291.495 319.176 291.707 318.232 292.878C316.324 295.244 313.316 301.533 312.583 317.922V330.873C312.583 330.873 294.056 327.804 273.315 327.272V333.628C273.315 333.628 316.149 349.565 319.851 344.057C323.556 338.546 329.816 323 329.438 314.537C329.061 306.074 319.851 291.495 319.851 291.495Z" fill="#0D6ECD"/>
<path d="M268.239 336.15H259.84C259.478 336.15 259.187 335.859 259.187 335.497V322.854C259.187 322.495 259.478 322.201 259.84 322.201H268.239C268.601 322.201 268.892 322.495 268.892 322.854V335.497C268.892 335.859 268.601 336.15 268.239 336.15Z" fill="#2F313E"/>
<path d="M273.315 328.249L270.419 327.636L268.892 326.815V333.64L270.482 332.377L273.315 333.072V328.249Z" fill="#DA8C8D"/>
<path d="M268.892 326.815C268.892 326.815 264.794 329 264.746 329.43C264.697 329.86 268.525 329.692 269.472 328.664C270.419 327.636 268.892 326.815 268.892 326.815Z" fill="#DA8C8D"/>
<path d="M364.486 354.741H319.851V319.353H364.486V354.741Z" fill="#2F313E"/>
<path d="M367.622 368.557L366.404 373.74C366.404 373.74 289.245 360.067 286.198 336.969C282.076 305.705 367.622 368.557 367.622 368.557Z" fill="#2F313E"/>
<path d="M368.135 368.03L383.778 371.41C384.298 371.521 384.485 372.17 384.099 372.535C382.606 373.944 378.231 376.255 366.404 373.74L358.644 372.654L361.673 363.639L368.135 368.03Z" fill="#2F313E"/>
<path d="M319.851 368.557L321.069 373.74C321.069 373.74 398.228 360.067 401.275 336.969C405.397 305.705 319.851 368.557 319.851 368.557Z" fill="#2F313E"/>
<path d="M319.341 368.03L303.695 371.41C303.178 371.521 302.989 372.17 303.375 372.535C304.868 373.944 309.244 376.255 321.069 373.74L328.83 372.654L325.803 363.639L319.341 368.03Z" fill="#2F313E"/>
<path d="M365.53 293.782C365.53 293.782 394.581 327.721 391.17 330.057C387.762 332.392 379.54 332.26 379.54 332.26L367.623 319.774C367.623 319.774 369.145 301.161 365.53 293.782Z" fill="#0D6ECD"/>
<path d="M378.49 329.597L359.113 358.403L363.199 360.842C363.199 360.842 396.301 340.684 391.448 328.508C391.448 328.508 378.745 321.314 378.49 329.597Z" fill="#0D6ECD"/>
<path d="M359.512 358.641C359.512 358.641 358.527 360.106 357.172 362.514C356.925 362.951 357.995 368.62 359.748 369.373C361.35 370.063 361.483 364.268 361.343 362.733C361.343 362.733 362.085 366.1 362.503 366.185C362.923 366.268 362.668 360.524 362.668 360.524L359.512 358.641Z" fill="#DA8C8D"/>
<path d="M370.377 322.66C370.377 322.66 366.746 319.577 366.612 316.537C366.612 316.537 365.117 326.609 371.084 331.624L370.377 322.66Z" fill="#005AB1"/>
<path d="M321.868 319.353L319.851 303.836C319.851 303.836 322.237 317.574 325.827 319.353H321.868Z" fill="#005AB1"/>
</svg>
