<svg width="40" height="40" viewBox="0 0 40 40" fill="none" xmlns="http://www.w3.org/2000/svg">
<path d="M15.9993 27V25.614L21.0393 21.24C21.5553 20.808 21.9513 20.43 22.2273 20.106C22.5033 19.77 22.6893 19.452 22.7853 19.152C22.8933 18.852 22.9473 18.528 22.9473 18.18C22.9473 17.472 22.7373 16.89 22.3173 16.434C21.8973 15.966 21.3213 15.732 20.5893 15.732C19.7133 15.732 19.0413 15.972 18.5733 16.452C18.1053 16.92 17.8713 17.586 17.8713 18.45H16.1793C16.1793 17.622 16.3593 16.89 16.7193 16.254C17.0913 15.618 17.6073 15.12 18.2673 14.76C18.9393 14.4 19.7133 14.22 20.5893 14.22C21.4413 14.22 22.1673 14.394 22.7673 14.742C23.3793 15.078 23.8413 15.546 24.1533 16.146C24.4773 16.734 24.6393 17.412 24.6393 18.18C24.6393 18.756 24.5253 19.284 24.2973 19.764C24.0693 20.232 23.7513 20.676 23.3433 21.096C22.9473 21.516 22.4853 21.954 21.9573 22.41L18.1953 25.524H24.8193V27H15.9993Z" fill="white"/>
<circle cx="20" cy="20" r="19.5" stroke="#7BFAC4"/>
</svg>
