<svg width="40" height="40" viewBox="0 0 40 40" fill="none" xmlns="http://www.w3.org/2000/svg">
<path d="M20.3654 27.18C19.4534 27.18 18.6734 27.024 18.0254 26.712C17.3894 26.388 16.8974 25.956 16.5494 25.416C16.2134 24.864 16.0454 24.252 16.0454 23.58H17.7374C17.7374 24.192 17.9474 24.696 18.3674 25.092C18.7874 25.476 19.4534 25.668 20.3654 25.668C21.2774 25.668 21.9434 25.47 22.3634 25.074C22.7834 24.666 22.9934 24.138 22.9934 23.49C22.9934 22.818 22.7774 22.278 22.3454 21.87C21.9254 21.45 21.2654 21.24 20.3654 21.24H19.0154V19.8H20.3654C21.2294 19.8 21.8534 19.62 22.2374 19.26C22.6214 18.888 22.8134 18.378 22.8134 17.73C22.8134 17.106 22.6274 16.62 22.2554 16.272C21.8834 15.912 21.2534 15.732 20.3654 15.732C19.5134 15.732 18.8894 15.918 18.4934 16.29C18.1094 16.65 17.9174 17.1 17.9174 17.64H16.2254C16.2254 17.004 16.3874 16.428 16.7114 15.912C17.0354 15.396 17.5034 14.988 18.1154 14.688C18.7394 14.376 19.4894 14.22 20.3654 14.22C21.2534 14.22 22.0034 14.376 22.6154 14.688C23.2394 14.988 23.7074 15.39 24.0194 15.894C24.3434 16.398 24.5054 16.95 24.5054 17.55C24.5054 18.27 24.3134 18.882 23.9294 19.386C23.5574 19.878 23.0294 20.226 22.3454 20.43C23.0654 20.658 23.6354 21.03 24.0554 21.546C24.4754 22.062 24.6854 22.77 24.6854 23.67C24.6854 24.306 24.5174 24.894 24.1814 25.434C23.8454 25.962 23.3534 26.388 22.7054 26.712C22.0694 27.024 21.2894 27.18 20.3654 27.18Z" fill="white"/>
<circle cx="20" cy="20" r="19.5" stroke="#7BFAC4"/>
</svg>
