<svg width="40" height="40" viewBox="0 0 40 40" fill="none" xmlns="http://www.w3.org/2000/svg">
<circle cx="20" cy="20" r="19.5" fill="#FBFBFB" stroke="#E1E1E1"/>
<g clip-path="url(#clip0_98_1644)">
<path opacity="0.2" d="M22.25 11V16.25H27.5L22.25 11Z" fill="black"/>
<path d="M26.75 29H13.25C13.0511 29 12.8603 28.921 12.7197 28.7803C12.579 28.6397 12.5 28.4489 12.5 28.25V11.75C12.5 11.5511 12.579 11.3603 12.7197 11.2197C12.8603 11.079 13.0511 11 13.25 11H22.25L27.5 16.25V28.25C27.5 28.4489 27.421 28.6397 27.2803 28.7803C27.1397 28.921 26.9489 29 26.75 29Z" fill="#0D6ECD"/>
<path d="M22.25 11V16.25H27.5" fill="#7BFAC4"/>
</g>
<defs>
<clipPath id="clip0_98_1644">
<rect width="24" height="24" fill="white" transform="translate(8 8)"/>
</clipPath>
</defs>
</svg>
