<svg width="48" height="48" viewBox="0 0 48 48" fill="none" xmlns="http://www.w3.org/2000/svg">
<g clip-path="url(#clip0_92_890)">
<path d="M30 7.5C30.9757 8.79713 31.5023 10.3768 31.5 12V13.5H16.5V12C16.4977 10.3768 17.0243 8.79713 18 7.5H10.5C10.1022 7.5 9.72064 7.65804 9.43934 7.93934C9.15804 8.22064 9 8.60218 9 9V40.5C9 40.8978 9.15804 41.2794 9.43934 41.5607C9.72064 41.842 10.1022 42 10.5 42H37.5C37.8978 42 38.2794 41.842 38.5607 41.5607C38.842 41.2794 39 40.8978 39 40.5V9C39 8.60218 38.842 8.22064 38.5607 7.93934C38.2794 7.65804 37.8978 7.5 37.5 7.5H30Z" fill="#0D6ECD"/>
<path d="M18 28.5H30" stroke="white" stroke-linecap="round" stroke-linejoin="round"/>
<path d="M18 22.5H30" stroke="white" stroke-linecap="round" stroke-linejoin="round"/>
<path d="M16.5 13.5V12C16.5 10.0109 17.2902 8.10322 18.6967 6.6967C20.1032 5.29018 22.0109 4.5 24 4.5C25.9891 4.5 27.8968 5.29018 29.3033 6.6967C30.7098 8.10322 31.5 10.0109 31.5 12V13.5H16.5Z" fill="#7BFAC4"/>
</g>
<defs>
<clipPath id="clip0_92_890">
<rect width="48" height="48" fill="white"/>
</clipPath>
</defs>
</svg>
