<svg width="560" height="400" viewBox="0 0 560 400" fill="none" xmlns="http://www.w3.org/2000/svg">
<path d="M559.542 396.847C559.542 398.587 437.242 400 286.379 400C135.514 400 13.2144 398.587 13.2144 396.847C13.2144 395.103 135.514 393.694 286.379 393.694C437.242 393.694 559.542 395.103 559.542 396.847Z" fill="#E1F0FF"/>
<path d="M233.354 363.087C229.559 372.671 218.736 378.525 208.461 374.471C193.046 368.389 195.582 343.881 211.929 338.09C224.192 333.741 234.191 342.562 234.746 354.712C234.882 357.693 234.367 360.521 233.354 363.087ZM234.033 315.382C225.158 311.883 215.335 311.852 205.622 315.295C188.257 321.45 176.022 337.544 174.452 356.297C172.907 374.764 182.286 390.793 198.348 397.13C209.108 401.371 220.999 400.898 231.833 395.797C242.468 390.789 251.071 381.599 255.432 370.582C257.834 364.524 258.9 358.187 258.609 351.752C257.845 334.999 248.43 321.063 234.033 315.382Z" fill="#42A57B"/>
<path d="M98.8921 243.891C111.183 239.556 121.223 248.391 121.792 260.547C121.932 263.528 121.422 266.361 120.406 268.925C116.613 278.51 105.768 284.354 95.4599 280.289C79.9941 274.187 82.5057 249.67 98.8921 243.891ZM85.3476 302.945C96.141 307.203 108.064 306.744 118.92 301.65C129.582 296.649 138.197 287.462 142.557 276.449C144.955 270.389 146.019 264.051 145.717 257.611C144.932 240.849 135.472 226.896 121.028 221.198C112.127 217.687 102.276 217.646 92.5394 221.079C75.1347 227.217 62.8859 243.307 61.3345 262.07C59.8074 280.544 69.2327 296.587 85.3472 302.945H85.3476Z" fill="#42A57B"/>
<path d="M353.895 97.703C339.804 101.198 282.628 118.415 290.824 123.827C293.674 125.709 300.926 126.379 308.273 126.821C265.531 171.951 84.9114 362.752 76.4515 373.051C71.0407 379.634 95.6323 397.109 104.034 394.488C111.375 392.202 290.644 199.723 334.98 148.739C337.746 156.02 340.748 162.371 343.062 161.683C349.946 159.634 355.556 111.763 356.368 99.8512C356.46 98.4801 355.31 97.3507 353.895 97.703Z" fill="#42A57B"/>
<path d="M227.198 363.087C223.403 372.671 212.58 378.525 202.305 374.471C186.889 368.389 189.424 343.881 205.773 338.09C218.036 333.741 228.035 342.562 228.59 354.712C228.726 357.693 228.212 360.521 227.198 363.087ZM227.874 315.382C219.002 311.883 209.179 311.852 199.466 315.295C182.1 321.45 169.865 337.544 168.295 356.297C166.75 374.764 176.13 390.793 192.192 397.13H192.193C202.952 401.371 214.843 400.898 225.673 395.797C236.312 390.789 244.915 381.599 249.276 370.582C251.675 364.524 252.744 358.187 252.453 351.752C251.689 334.999 242.274 321.063 227.874 315.382Z" fill="#7BFAC4"/>
<path d="M92.7338 243.891C105.024 239.556 115.064 248.391 115.633 260.547C115.773 263.528 115.263 266.361 114.248 268.925C110.454 278.51 99.6089 284.354 89.3012 280.289C73.8354 274.187 76.347 249.67 92.7338 243.891ZM79.1893 302.945C89.9822 307.203 101.905 306.744 112.762 301.65C123.423 296.649 132.038 287.462 136.398 276.449C138.797 270.389 139.86 264.051 139.558 257.611C138.773 240.849 129.313 226.896 114.87 221.198C105.969 217.687 96.1175 217.646 86.381 221.079C68.976 227.217 56.7272 243.307 55.1758 262.07C53.6487 280.544 63.0744 296.587 79.1889 302.945H79.1893Z" fill="#7BFAC4"/>
<path d="M347.739 97.703C333.643 101.198 276.471 118.415 284.667 123.827C287.514 125.709 294.769 126.379 302.117 126.821C259.374 171.951 78.7544 362.752 70.2942 373.051C64.8837 379.634 89.475 397.109 97.8765 394.488C105.217 392.202 284.487 199.723 328.824 148.739C331.59 156.02 334.591 162.371 336.905 161.683C343.79 159.634 349.399 111.763 350.211 99.8512C350.303 98.4801 349.149 97.3507 347.739 97.703Z" fill="#7BFAC4"/>
<path d="M404.404 382.32C404.404 382.32 404.587 387.763 403.871 389C403.155 390.233 390.4 393.082 389.765 394.702C389.129 396.318 389.382 397.814 390.463 398.038C391.546 398.263 408.584 397.852 408.985 397.599C409.389 397.347 408.753 393.521 410.52 394.571C412.287 395.621 410.616 397.465 411.846 397.582C413.073 397.7 415.641 398.073 416.027 396.95C416.413 395.824 414.866 383.633 414.712 383.391C414.558 383.149 404.404 382.32 404.404 382.32Z" fill="#2F313E"/>
<path d="M432.02 382.231C432.02 382.231 432.299 387.67 431.601 388.917C430.903 390.16 418.2 393.2 417.594 394.826C416.984 396.453 417.263 397.945 418.347 398.156C419.435 398.363 436.462 397.696 436.862 397.441C437.259 397.182 436.561 393.362 438.342 394.388C440.128 395.41 438.489 397.282 439.72 397.382C440.947 397.479 443.526 397.814 443.89 396.684C444.257 395.555 442.505 383.388 442.347 383.149C442.189 382.911 432.02 382.231 432.02 382.231Z" fill="#2F313E"/>
<path d="M400.297 243.947C397.347 258.83 394.786 273.814 392.839 288.843C392.068 294.801 391.377 300.786 391.083 306.785C390.389 320.859 393.644 335.264 395.506 349.207C396.961 360.107 398.25 371.124 400.635 381.889C400.778 382.549 401.557 387.777 402.754 387.712C405.73 387.549 418.573 387.712 418.573 387.712C416.405 372.578 414.37 357.427 412.522 342.258C410.799 328.132 408.492 314.366 410.686 300.171C412.243 290.08 414.289 279.967 417.092 270.111C417.32 269.305 419.363 260.86 420.931 261.313C423.135 261.951 420.042 277.143 419.836 278.683C418.407 289.289 416.82 299.906 416.203 310.588C415.428 323.898 418.727 337.043 421.295 350.053C423.345 360.435 425.464 370.806 427.617 381.171C428.073 383.353 428.524 385.533 428.984 387.712H444.427C443.065 378.041 441.779 368.357 440.544 358.67C439.071 347.148 437.205 335.648 436.654 324.04C436.232 315.119 437.312 307.476 439.674 298.935C443.638 284.575 448.523 270.324 451.326 255.707C451.94 252.5 453.09 248.325 452.006 245.096L400.297 243.947Z" fill="#2F313E"/>
<path d="M452.48 266.424C452.009 266.829 451.396 267.055 450.58 266.992C449.284 266.89 447.99 266.573 446.741 266.271C434.828 263.378 423.219 258.621 411.986 253.971C407.768 252.228 403.558 250.334 400.043 247.537C399.15 246.826 398.268 245.998 397.986 244.934C397.695 243.864 398.063 242.741 398.423 241.69C399.929 237.301 401.714 233.037 403.683 228.814C406.192 223.425 408.51 217.975 410.619 212.435C412.401 207.757 414.08 203.044 415.718 198.319C416.827 195.117 417.911 191.908 418.984 188.694C420.046 185.517 420.758 181.963 423.756 179.851C425.886 178.351 428.524 177.909 431.019 177.225C434.259 176.337 437.745 175.499 441.143 175.567C445.327 175.65 449.401 176.667 452.748 179.112C453.607 179.738 454.397 180.426 455.125 181.175C459.518 185.655 461.535 192.064 461.741 198.238C461.983 205.439 460.113 212.527 458.618 219.592C458.269 221.226 457.942 222.867 457.637 224.511C456.998 227.939 456.454 231.384 456.017 234.839C455.389 239.813 454.996 244.807 454.875 249.807C454.779 253.582 454.842 257.381 454.217 261.121C453.949 262.718 453.795 265.284 452.48 266.424Z" fill="#0D6ECD"/>
<path d="M450.412 160.174C450.445 160.111 450.122 159.497 450.096 159.373C450.045 159.128 450.026 158.876 450.074 158.629C450.151 158.182 450.419 157.798 450.783 157.509C453.255 155.55 456.782 157.815 457.796 160.144C458.149 160.951 458.255 161.835 458.564 162.657C459.17 164.274 460.812 165.043 461.466 166.581C461.999 167.839 461.804 169.239 460.974 170.341C460.202 171.359 458.803 171.417 457.991 172.332C457.634 172.73 457.377 173.194 457.08 173.632C455.496 175.962 452.653 176.814 449.821 176.789C444.34 176.741 445.666 166.926 446.812 165.525C447.962 164.125 450.412 160.175 450.412 160.174Z" fill="#221E3D"/>
<path d="M444.455 181.724C444.914 181.625 445.322 181.291 445.73 180.888C446.435 180.189 447.188 179.529 447.905 178.84C448.371 178.391 448.838 177.939 449.282 177.467C449.407 177.334 449.83 176.994 449.815 176.79C449.793 176.366 446.281 173.764 449.058 172.87C451.093 172.216 452.089 171.753 451.428 170.064C450.763 168.373 448.434 169.667 447.967 169.211C447.607 168.855 447.486 168.056 447.758 167.626C447.927 167.36 448.279 167.394 448.566 167.357C448.9 167.313 449.231 167.257 449.554 167.158C450.318 166.923 450.957 166.441 451.104 165.663C451.56 163.203 450.41 160.174 450.41 160.174C450.41 160.174 448.279 161.635 446.093 162.368C443.908 163.101 441.674 163.104 441.696 163.565C441.748 164.485 442.541 164.847 442.133 165.132C441.726 165.419 441.042 165.014 440.807 165.463C440.572 165.911 440.763 166.055 440.763 166.055C440.763 166.055 440.219 165.778 440.113 166.153C440.01 166.531 438.43 167.008 438.122 168.056C437.574 169.893 441.344 171.005 442.611 171.994C442.853 172.181 443 172.361 443.011 172.544C443.052 173.194 441.909 174.093 440.712 174.929C440.333 175.194 439.72 175.417 439.551 175.874C439.382 176.335 439.632 176.988 439.804 177.418C440.473 179.083 441.733 180.561 443.342 181.502C443.757 181.744 444.121 181.796 444.455 181.724Z" fill="#DA8C8D"/>
<path d="M440.714 174.929C441.912 174.093 443.054 173.194 443.014 172.544C443.003 172.361 442.856 172.181 442.614 171.994C442.764 172.036 445.707 172.881 445.486 173.877C445.31 174.666 442.132 174.972 440.714 174.929Z" fill="#C67577"/>
<path d="M436.085 189.819C434.337 191.056 432.963 191.827 432.503 191.733C432.114 191.655 432.088 190.678 432.276 189.247C432.86 184.751 438.381 175.751 438.381 175.751C439.053 175.564 439.729 175.446 440.405 175.385C440.934 175.335 441.463 175.324 441.985 175.337C446.639 175.468 450.735 177.848 450.735 177.848C450.155 180.625 440.493 186.705 436.085 189.819Z" fill="white"/>
<path d="M437.071 189.129C435.326 190.366 433.507 191.907 432.501 191.733C432.045 191.654 432.163 190.67 432.167 190.384C432.192 189.074 433.03 187.791 433.688 186.665C435.065 184.3 436.204 181.822 437.714 179.525C438.305 178.623 438.911 177.733 439.51 176.835C439.602 176.702 440.278 175.396 440.403 175.385C440.932 175.335 441.461 175.324 441.983 175.336C442.001 176.944 438.397 184.81 437.071 189.129Z" fill="#E84F1D"/>
<path d="M438.38 175.751C438.38 175.751 403.478 160.704 397.883 154.065C388.159 142.529 396.204 106.268 394.778 105.992C393.353 105.716 387.49 105.191 384.97 106.41C382.45 107.629 377.843 150.163 385.914 160.354C393.985 170.545 423.726 188.864 425.266 188.752C426.801 188.64 438.38 175.751 438.38 175.751Z" fill="#0D6ECD"/>
<path d="M457.093 183.536C457.093 183.536 477.115 214.581 482.118 226.234C487.118 237.886 499.435 269.298 496.827 270.847C494.219 272.396 489.649 273.214 488.565 272.805C487.478 272.396 473.294 234.408 470.032 229.297C466.77 224.186 454.136 204.155 453.776 202.519C453.413 200.884 457.093 183.536 457.093 183.536Z" fill="#0D6ECD"/>
<path d="M488.915 280.659C488.915 280.659 488.371 276.365 489.378 275.792C490.384 275.219 500.935 274.154 501.394 275.016C501.853 275.878 502.283 280.766 502.029 280.659C501.78 280.548 500.648 280.659 500.648 280.659C500.648 280.659 500.648 276.3 500.086 276.064C499.52 275.828 491.001 276.494 490.502 276.797C489.998 277.101 490.751 280.811 490.571 280.88C490.391 280.945 488.915 280.659 488.915 280.659Z" fill="#221E3D"/>
<path d="M522.538 305.017C521.634 309.679 515 308.985 511.234 309.341C505.985 309.835 500.721 310.173 495.456 310.405C490.427 310.622 485.383 310.774 480.35 310.65C478.422 310.598 474.296 311.016 472.68 309.71C469.767 307.358 470.252 299.477 470.101 296.314C469.943 293.06 469.829 289.776 470.134 286.526C470.366 284.053 470.527 282.306 471.956 281.411C474.278 279.954 478.719 280.123 482.246 280.188C483.322 280.209 484.314 280.22 485.13 280.175C490.064 279.895 494.997 279.608 499.931 279.398C503.494 279.249 507.061 279.104 510.621 279.038C511.499 279.018 512.38 279.007 513.255 279C515.128 278.987 518.424 278.475 520.165 279.36C521.256 279.912 521.642 281.953 521.851 283.514L521.855 283.525L521.862 283.563C521.932 284.108 521.987 284.595 522.042 284.934C522.615 288.477 522.854 292.083 522.946 295.664C523.023 298.742 523.126 301.974 522.538 305.017Z" fill="#C0D4E7"/>
<path d="M522.538 305.017C521.634 309.679 515 308.985 511.234 309.341C505.985 309.835 500.721 310.173 495.456 310.405C490.427 310.622 485.383 310.774 480.35 310.65C478.422 310.598 474.296 311.016 472.68 309.71C469.767 307.358 470.252 299.477 470.101 296.314C469.943 293.06 469.829 289.776 470.134 286.526C470.366 284.053 470.527 282.306 471.956 281.411C471.956 281.411 471.648 304.799 474.818 306.695C476.783 307.873 480.81 307.307 482.984 307.289C488.014 307.251 493.043 307.017 498.061 306.747C505.147 306.367 512.226 305.856 519.305 305.376C522.141 305.186 521.601 302.596 521.726 300.582C521.855 298.493 521.891 296.4 521.906 294.307C521.924 291.769 521.899 289.23 521.866 286.695C521.858 286.243 522.152 283.798 521.851 283.514L521.855 283.525L521.862 283.563C521.932 284.108 521.987 284.595 522.042 284.934C522.615 288.477 522.854 292.083 522.946 295.664C523.023 298.742 523.126 301.974 522.538 305.017Z" fill="#8BACCC"/>
<path d="M490.538 272.831C490.538 272.831 489.087 275.604 489.737 275.662C490.387 275.72 492.073 275.632 492.154 276.071C492.231 276.51 490.762 276.509 490.861 276.699C490.96 276.89 492.279 278.268 494.267 277.964C496.258 277.66 498.032 276.934 498.513 276.033C499.883 273.461 495.596 271.469 495.435 271.536C495.273 271.603 491.831 272.756 490.538 272.831Z" fill="#EB9788"/>
<path d="M459.987 213.263C459.987 213.263 452.522 202.21 451.938 203.78C451.354 205.349 457.456 223.262 458.036 222.428C458.617 221.592 459.987 213.263 459.987 213.263Z" fill="#0D6ECD"/>
<path d="M392.413 95.6621C392.413 95.6621 388.504 90.8718 386.517 90.6266C384.526 90.3814 384.537 91.0652 385.411 92.1013C386.058 92.8646 387.766 94.8228 388.574 95.9591C386.043 97.1126 383.398 99.4991 382.795 100.666C381.844 102.504 386.296 105.94 386.296 105.94C387.619 105.47 391.568 105.526 392.079 105.56C392.586 105.595 393.43 101.975 393.677 101.461C393.919 100.943 395.069 97.3682 392.413 95.6621Z" fill="#DA8C8D"/>
<path d="M375.063 343.681H351.717C343.712 343.681 336.464 346.734 331.218 351.666C325.973 356.597 322.725 363.412 322.725 370.937C322.725 385.988 335.704 398.193 351.717 398.193H368.476H375.063C378.181 398.193 380.709 395.817 380.709 392.885V348.985C380.709 346.057 378.181 343.681 375.063 343.681Z" fill="#0D6ECD"/>
<path d="M367.076 370.937C367.076 378.912 360.199 385.377 351.717 385.377C343.234 385.377 336.357 378.912 336.357 370.937C336.357 362.963 343.234 356.498 351.717 356.498C360.199 356.498 367.076 362.963 367.076 370.937Z" fill="white"/>
<path d="M358.762 370.585C358.762 374.242 355.606 377.206 351.716 377.206C347.826 377.206 344.674 374.242 344.674 370.585C344.674 366.927 347.826 363.961 351.716 363.961C355.606 363.961 358.762 366.927 358.762 370.585Z" fill="#75BBFF"/>
<path d="M376.8 391.176C376.8 392.568 375.599 393.694 374.122 393.694C372.645 393.694 371.448 392.568 371.448 391.176C371.448 389.788 372.645 388.662 374.122 388.662C375.599 388.662 376.8 389.788 376.8 391.176Z" fill="#75BBFF"/>
<path d="M376.8 349.991C376.8 351.383 375.599 352.509 374.122 352.509C372.645 352.509 371.448 351.383 371.448 349.991C371.448 348.602 372.645 347.477 374.122 347.477C375.599 347.477 376.8 348.602 376.8 349.991Z" fill="#75BBFF"/>
<path d="M351.717 343.681C351.287 344.904 350.799 346.116 350.266 347.3C349.384 349.245 348.734 351.006 346.376 351.466C342.507 352.222 339.212 354.439 336.597 357.157C332.721 361.188 330.803 366.786 324.371 367.743C323.812 367.826 323.261 367.874 322.725 367.874C322.725 367.874 324.496 344.79 351.717 343.681Z" fill="#75BBFF"/>
<path d="M375.932 343.681C375.932 343.681 376.884 96.1596 375.253 93.2792C373.622 90.3954 366.286 93.2792 366.286 93.2792V343.681H375.932Z" fill="#FFC731"/>
<path d="M366.286 90.6264C366.286 90.6264 386.042 89.9633 386.516 90.6264C386.986 91.293 387.46 91.5934 386.042 91.9975C384.628 92.4016 366.286 93.2788 366.286 93.2788V90.6264Z" fill="#42A57B"/>
<path d="M371.506 102.248C372.884 102.248 374.261 102.248 375.639 102.248C376.208 102.248 376.212 101.419 375.639 101.419C374.261 101.419 372.884 101.419 371.506 101.419C370.937 101.419 370.937 102.248 371.506 102.248Z" fill="#42A57B"/>
<path d="M371.506 109.117C372.884 109.117 374.261 109.117 375.639 109.117C376.208 109.117 376.212 108.285 375.639 108.285C374.261 108.285 372.884 108.285 371.506 108.285C370.937 108.285 370.937 109.117 371.506 109.117Z" fill="#42A57B"/>
<path d="M371.506 115.98C372.884 115.98 374.261 115.98 375.639 115.98C376.208 115.98 376.212 115.148 375.639 115.148C374.261 115.148 372.884 115.148 371.506 115.148C370.937 115.148 370.937 115.98 371.506 115.98Z" fill="#42A57B"/>
<path d="M371.506 122.845C372.884 122.845 374.261 122.845 375.639 122.845C376.208 122.845 376.212 122.017 375.639 122.017C374.261 122.017 372.884 122.017 371.506 122.017C370.937 122.017 370.937 122.845 371.506 122.845Z" fill="#42A57B"/>
<path d="M371.506 129.712C372.884 129.712 374.261 129.712 375.639 129.712C376.208 129.712 376.212 128.879 375.639 128.879C374.261 128.879 372.884 128.879 371.506 128.879C370.937 128.879 370.937 129.712 371.506 129.712Z" fill="#42A57B"/>
<path d="M371.506 136.578C372.884 136.578 374.261 136.578 375.639 136.578C376.208 136.578 376.212 135.745 375.639 135.745C374.261 135.745 372.884 135.745 371.506 135.745C370.937 135.745 370.937 136.578 371.506 136.578Z" fill="#42A57B"/>
<path d="M371.506 143.445C372.884 143.445 374.261 143.445 375.639 143.445C376.208 143.445 376.212 142.613 375.639 142.613C374.261 142.613 372.884 142.613 371.506 142.613C370.937 142.613 370.937 143.445 371.506 143.445Z" fill="#42A57B"/>
<path d="M371.506 150.31C372.884 150.31 374.261 150.31 375.639 150.31C376.208 150.31 376.212 149.478 375.639 149.478C374.261 149.478 372.884 149.478 371.506 149.478C370.937 149.478 370.937 150.31 371.506 150.31Z" fill="#42A57B"/>
<path d="M371.506 157.176C372.884 157.176 374.261 157.176 375.639 157.176C376.208 157.176 376.212 156.344 375.639 156.344C374.261 156.344 372.884 156.344 371.506 156.344C370.937 156.344 370.937 157.176 371.506 157.176Z" fill="#42A57B"/>
<path d="M371.506 164.042C372.884 164.042 374.261 164.042 375.639 164.042C376.208 164.042 376.212 163.21 375.639 163.21C374.261 163.21 372.884 163.21 371.506 163.21C370.937 163.21 370.937 164.042 371.506 164.042Z" fill="#42A57B"/>
<path d="M371.506 170.908C372.884 170.908 374.261 170.908 375.639 170.908C376.208 170.908 376.212 170.076 375.639 170.076C374.261 170.076 372.884 170.076 371.506 170.076C370.937 170.076 370.937 170.908 371.506 170.908Z" fill="#42A57B"/>
<path d="M371.506 177.774C372.884 177.774 374.261 177.774 375.639 177.774C376.208 177.774 376.212 176.942 375.639 176.942C374.261 176.942 372.884 176.942 371.506 176.942C370.937 176.942 370.937 177.774 371.506 177.774Z" fill="#42A57B"/>
<path d="M371.506 184.639C372.884 184.639 374.261 184.639 375.639 184.639C376.208 184.639 376.212 183.807 375.639 183.807C374.261 183.807 372.884 183.807 371.506 183.807C370.937 183.807 370.937 184.639 371.506 184.639Z" fill="#42A57B"/>
<path d="M371.506 191.505C372.884 191.505 374.261 191.505 375.639 191.505C376.208 191.505 376.212 190.673 375.639 190.673C374.261 190.673 372.884 190.673 371.506 190.673C370.937 190.673 370.937 191.505 371.506 191.505Z" fill="#42A57B"/>
<path d="M371.506 198.371C372.884 198.371 374.261 198.371 375.639 198.371C376.208 198.371 376.212 197.539 375.639 197.539C374.261 197.539 372.884 197.539 371.506 197.539C370.937 197.539 370.937 198.371 371.506 198.371Z" fill="#42A57B"/>
<path d="M371.506 205.237C372.884 205.237 374.261 205.237 375.639 205.237C376.208 205.237 376.212 204.405 375.639 204.405C374.261 204.405 372.884 204.405 371.506 204.405C370.937 204.405 370.937 205.237 371.506 205.237Z" fill="#42A57B"/>
<path d="M371.506 212.103C372.884 212.103 374.261 212.103 375.639 212.103C376.208 212.103 376.212 211.271 375.639 211.271C374.261 211.271 372.884 211.271 371.506 211.271C370.937 211.271 370.937 212.103 371.506 212.103Z" fill="#42A57B"/>
<path d="M371.506 218.968C372.884 218.968 374.261 218.968 375.639 218.968C376.208 218.968 376.212 218.136 375.639 218.136C374.261 218.136 372.884 218.136 371.506 218.136C370.937 218.136 370.937 218.968 371.506 218.968Z" fill="#42A57B"/>
<path d="M371.506 225.834C372.884 225.834 374.261 225.834 375.639 225.834C376.208 225.834 376.212 225.002 375.639 225.002C374.261 225.002 372.884 225.002 371.506 225.002C370.937 225.002 370.937 225.834 371.506 225.834Z" fill="#42A57B"/>
<path d="M371.506 232.7C372.884 232.7 374.261 232.7 375.639 232.7C376.208 232.7 376.212 231.869 375.639 231.869C374.261 231.869 372.884 231.869 371.506 231.869C370.937 231.869 370.937 232.7 371.506 232.7Z" fill="#42A57B"/>
<path d="M371.506 239.566C372.884 239.566 374.261 239.566 375.639 239.566C376.208 239.566 376.212 238.734 375.639 238.734C374.261 238.734 372.884 238.734 371.506 238.734C370.937 238.734 370.937 239.566 371.506 239.566Z" fill="#42A57B"/>
<path d="M371.506 246.432C372.884 246.432 374.261 246.432 375.639 246.432C376.208 246.432 376.212 245.6 375.639 245.6C374.261 245.6 372.884 245.6 371.506 245.6C370.937 245.6 370.937 246.432 371.506 246.432Z" fill="#42A57B"/>
<path d="M371.506 253.298C372.884 253.298 374.261 253.298 375.639 253.298C376.208 253.298 376.212 252.466 375.639 252.466C374.261 252.466 372.884 252.466 371.506 252.466C370.937 252.466 370.937 253.298 371.506 253.298Z" fill="#42A57B"/>
<path d="M371.506 260.163C372.884 260.163 374.261 260.163 375.639 260.163C376.208 260.163 376.212 259.331 375.639 259.331C374.261 259.331 372.884 259.331 371.506 259.331C370.937 259.331 370.937 260.163 371.506 260.163Z" fill="#42A57B"/>
<path d="M371.506 267.029C372.884 267.029 374.261 267.029 375.639 267.029C376.208 267.029 376.212 266.197 375.639 266.197C374.261 266.197 372.884 266.197 371.506 266.197C370.937 266.197 370.937 267.029 371.506 267.029Z" fill="#42A57B"/>
<path d="M371.506 273.895C372.884 273.895 374.261 273.895 375.639 273.895C376.208 273.895 376.212 273.063 375.639 273.063C374.261 273.063 372.884 273.063 371.506 273.063C370.937 273.063 370.937 273.895 371.506 273.895Z" fill="#42A57B"/>
<path d="M371.506 280.762C372.884 280.762 374.261 280.762 375.639 280.762C376.208 280.762 376.212 279.93 375.639 279.93C374.261 279.93 372.884 279.93 371.506 279.93C370.937 279.93 370.937 280.762 371.506 280.762Z" fill="#42A57B"/>
<path d="M371.506 287.627C372.884 287.627 374.261 287.627 375.639 287.627C376.208 287.627 376.212 286.795 375.639 286.795C374.261 286.795 372.884 286.795 371.506 286.795C370.937 286.795 370.937 287.627 371.506 287.627Z" fill="#42A57B"/>
<path d="M371.506 294.494C372.884 294.494 374.261 294.494 375.639 294.494C376.208 294.494 376.212 293.661 375.639 293.661C374.261 293.661 372.884 293.661 371.506 293.661C370.937 293.661 370.937 294.494 371.506 294.494Z" fill="#42A57B"/>
<path d="M371.506 301.36C372.884 301.36 374.261 301.36 375.639 301.36C376.208 301.36 376.212 300.527 375.639 300.527C374.261 300.527 372.884 300.527 371.506 300.527C370.937 300.527 370.937 301.36 371.506 301.36Z" fill="#42A57B"/>
<path d="M371.506 308.225C372.884 308.225 374.261 308.225 375.639 308.225C376.208 308.225 376.212 307.393 375.639 307.393C374.261 307.393 372.884 307.393 371.506 307.393C370.937 307.393 370.937 308.225 371.506 308.225Z" fill="#42A57B"/>
<path d="M371.506 315.091C372.884 315.091 374.261 315.091 375.639 315.091C376.208 315.091 376.212 314.259 375.639 314.259C374.261 314.259 372.884 314.259 371.506 314.259C370.937 314.259 370.937 315.091 371.506 315.091Z" fill="#42A57B"/>
<path d="M371.506 321.957C372.884 321.957 374.261 321.957 375.639 321.957C376.208 321.957 376.212 321.125 375.639 321.125C374.261 321.125 372.884 321.125 371.506 321.125C370.937 321.125 370.937 321.957 371.506 321.957Z" fill="#42A57B"/>
<path d="M371.506 328.823C372.884 328.823 374.261 328.823 375.639 328.823C376.208 328.823 376.212 327.991 375.639 327.991C374.261 327.991 372.884 327.991 371.506 327.991C370.937 327.991 370.937 328.823 371.506 328.823Z" fill="#42A57B"/>
<path d="M371.506 335.689C372.884 335.689 374.261 335.689 375.639 335.689C376.208 335.689 376.212 334.857 375.639 334.857C374.261 334.857 372.884 334.857 371.506 334.857C370.937 334.857 370.937 335.689 371.506 335.689Z" fill="#42A57B"/>
<mask id="mask0_92_913" style="mask-type:luminance" maskUnits="userSpaceOnUse" x="258" y="19" width="60" height="18">
<path d="M315.428 32.2534C316.857 31.1517 317.816 29.38 317.819 27.6946V27.6739C317.816 26.8346 317.577 26.0127 317.037 25.3081C318.657 27.4287 317.577 30.5991 315.428 32.2534ZM259.071 29.1002C258.564 27.325 258.822 25.467 259.674 23.975C259.123 24.942 258.821 26.0576 258.814 27.2076V27.2905C258.818 27.8914 258.899 28.4993 259.071 29.1002ZM297.42 20.6767C297.06 20.3244 296.714 19.9618 296.369 19.6199C296.714 19.9618 297.06 20.321 297.42 20.6767Z" fill="white"/>
</mask>
<g mask="url(#mask0_92_913)">
<path d="M315.428 32.2534C316.857 31.1517 317.816 29.38 317.819 27.6946V27.6739C317.816 26.8346 317.577 26.0127 317.037 25.3081C318.657 27.4287 317.577 30.5991 315.428 32.2534ZM259.071 29.1002C258.564 27.325 258.822 25.467 259.674 23.975C259.123 24.942 258.821 26.0576 258.814 27.2076V27.2905C258.818 27.8914 258.899 28.4993 259.071 29.1002ZM297.42 20.6767C297.06 20.3244 296.714 19.9618 296.369 19.6199C296.714 19.9618 297.06 20.321 297.42 20.6767Z" fill="url(#paint0_linear_92_913)"/>
</g>
<mask id="mask1_92_913" style="mask-type:luminance" maskUnits="userSpaceOnUse" x="258" y="15" width="60" height="22">
<path d="M284.932 36.4658C278.958 36.4658 273.015 36.0617 267.306 35.0947C263.36 34.4247 260.517 33.361 259.173 29.4238C259.136 29.3167 259.103 29.2062 259.07 29.0991C258.897 28.4982 258.816 27.8903 258.812 27.2894V27.2065C258.82 26.0565 259.121 24.9409 259.672 23.9739C260.693 22.1918 262.563 20.9243 264.999 20.9243C265.37 20.9243 265.756 20.9519 266.152 21.0141C267.894 21.2834 269.602 22.1987 271.266 22.955C272.541 23.5318 273.79 24.0119 275.013 24.0395C275.046 24.0395 275.079 24.0395 275.112 24.0395C275.759 24.0395 276.402 23.9082 277.033 23.594C277.114 23.5525 277.199 23.5076 277.276 23.4593C279.043 22.4197 279.686 20.2474 280.972 18.6621C282.536 16.7315 285.156 15.7058 287.746 15.7058C288.051 15.7058 288.355 15.7196 288.66 15.7472C291.485 16.0131 294.097 17.4223 296.081 19.3321C296.114 19.3667 296.147 19.3977 296.18 19.4323C296.188 19.4392 296.195 19.4461 296.202 19.453C296.221 19.4703 296.243 19.491 296.261 19.5083C296.29 19.5394 296.32 19.5704 296.353 19.6015C296.357 19.605 296.364 19.6119 296.368 19.6188C296.713 19.9607 297.058 20.3233 297.418 20.6756C298.612 21.8533 299.916 22.9447 301.488 22.9447C301.584 22.9447 301.68 22.9412 301.779 22.9308C301.793 22.9308 301.804 22.9309 301.819 22.9274C301.841 22.9274 301.86 22.9239 301.882 22.9205C301.907 22.917 301.937 22.9136 301.962 22.9101C302.106 22.8929 302.242 22.8618 302.378 22.8272C303.333 22.5751 304.163 21.9638 305.085 21.5908C305.882 21.2696 306.709 21.1281 307.546 21.1281C309.883 21.1281 312.3 22.2056 314.397 23.3418C315.224 23.7908 316.062 24.2674 316.701 24.9236C316.818 25.0445 316.932 25.1723 317.035 25.307C317.575 26.0116 317.814 26.8335 317.818 27.6728V27.6935C317.814 29.3789 316.855 31.1506 315.426 32.2523C313.277 33.9032 310.404 34.4109 307.656 34.7908C303.131 35.4124 298.454 35.9063 293.73 36.193C290.806 36.3691 287.867 36.4658 284.932 36.4658Z" fill="white"/>
</mask>
<g mask="url(#mask1_92_913)">
<rect x="258.46" y="15.4988" width="59.6663" height="21.247" fill="#E1F0FF"/>
</g>
<mask id="mask2_92_913" style="mask-type:luminance" maskUnits="userSpaceOnUse" x="139" y="119" width="95" height="21">
<path d="M213.933 131.197C207.651 129.414 208.048 121.62 201.119 121.046C200.77 121.015 200.436 121.001 200.116 121.001C200.083 121.001 200.05 121.001 200.017 121.005C200.05 121.001 200.083 121.001 200.12 121.001C200.436 121.001 200.77 121.015 201.119 121.046C208.048 121.62 207.651 129.414 213.933 131.197ZM151.646 131.138C150.767 131.138 149.868 130.976 148.96 130.817C148.052 130.654 147.135 130.495 146.219 130.495C147.135 130.495 148.052 130.654 148.96 130.817C149.868 130.976 150.767 131.138 151.646 131.138ZM187.619 128.306C183.027 128.306 175.1 120.78 170.944 119.851C175.1 120.78 183.027 128.306 187.62 128.306C187.804 128.306 187.984 128.292 188.158 128.268C187.984 128.292 187.804 128.306 187.619 128.306ZM158.481 123.446C160.486 120.808 164.139 119.506 167.762 119.506C168.318 119.506 168.873 119.537 169.422 119.599C168.874 119.537 168.32 119.509 167.765 119.506H167.76C164.138 119.509 160.485 120.808 158.481 123.446Z" fill="white"/>
</mask>
<g mask="url(#mask2_92_913)">
<path d="M213.933 131.197C207.651 129.414 208.048 121.62 201.119 121.046C200.77 121.015 200.436 121.001 200.116 121.001C200.083 121.001 200.05 121.001 200.017 121.005C200.05 121.001 200.083 121.001 200.12 121.001C200.436 121.001 200.77 121.015 201.119 121.046C208.048 121.62 207.651 129.414 213.933 131.197ZM151.646 131.138C150.767 131.138 149.868 130.976 148.96 130.817C148.052 130.654 147.135 130.495 146.219 130.495C147.135 130.495 148.052 130.654 148.96 130.817C149.868 130.976 150.767 131.138 151.646 131.138ZM187.619 128.306C183.027 128.306 175.1 120.78 170.944 119.851C175.1 120.78 183.027 128.306 187.62 128.306C187.804 128.306 187.984 128.292 188.158 128.268C187.984 128.292 187.804 128.306 187.619 128.306ZM158.481 123.446C160.486 120.808 164.139 119.506 167.762 119.506C168.318 119.506 168.873 119.537 169.422 119.599C168.874 119.537 168.32 119.509 167.765 119.506H167.76C164.138 119.509 160.485 120.808 158.481 123.446Z" fill="url(#paint1_linear_92_913)"/>
</g>
<mask id="mask3_92_913" style="mask-type:luminance" maskUnits="userSpaceOnUse" x="139" y="119" width="95" height="34">
<path d="M180.767 152.818C176.01 152.818 171.252 152.725 166.503 152.629C158.237 152.462 148.846 151.078 143.039 144.974C140.964 142.794 139.467 139.96 139.622 137.047C139.625 136.978 139.63 136.909 139.635 136.844C139.869 133.908 142.144 131.038 145.217 130.568C145.272 130.558 145.327 130.551 145.383 130.544C145.662 130.51 145.941 130.496 146.221 130.496C147.136 130.496 148.053 130.655 148.961 130.817C149.869 130.976 150.768 131.138 151.647 131.138C152.371 131.138 153.081 131.028 153.772 130.72C153.983 130.627 154.192 130.517 154.399 130.382C156.219 129.211 156.842 126.479 157.706 124.707C157.925 124.259 158.186 123.837 158.482 123.447C160.487 120.808 164.139 119.51 167.761 119.506H167.766C168.321 119.51 168.876 119.537 169.423 119.599C169.77 119.637 170.115 119.689 170.455 119.751C170.478 119.758 170.502 119.762 170.526 119.765C170.65 119.789 170.774 119.814 170.897 119.841C170.913 119.845 170.929 119.848 170.945 119.852C175.102 120.781 183.028 128.306 187.62 128.306C187.805 128.306 187.985 128.292 188.159 128.268C188.491 128.22 188.801 128.123 189.087 127.971C193.526 125.63 194.314 121.057 200.018 121.005C200.051 121.002 200.085 121.002 200.118 121.002C200.437 121.002 200.771 121.016 201.12 121.047C208.049 121.62 207.652 129.415 213.934 131.197C214.749 131.432 215.705 131.518 216.741 131.518C217.281 131.518 217.843 131.494 218.419 131.456C218.43 131.453 218.441 131.453 218.452 131.453C218.456 131.453 218.456 131.453 218.46 131.453C219.672 131.366 220.954 131.211 222.24 131.055C222.383 131.038 222.53 131.021 222.677 131C224.444 130.789 226.207 130.589 227.798 130.589C229.3 130.589 230.649 130.769 231.699 131.276C231.721 131.287 231.74 131.294 231.762 131.304C233.793 132.323 234.69 134.609 233.397 139.32C233.363 139.441 233.327 139.566 233.29 139.692C230.414 149.565 212.251 150.76 203.45 151.742C195.919 152.581 188.345 152.818 180.767 152.818Z" fill="white"/>
</mask>
<g mask="url(#mask3_92_913)">
<rect x="139.283" y="119.282" width="95.7776" height="33.8529" fill="#E1F0FF"/>
</g>
<mask id="mask4_92_913" style="mask-type:luminance" maskUnits="userSpaceOnUse" x="425" y="65" width="76" height="26">
<path d="M439.538 89.3314C441.694 89.3314 443.729 89.2002 445.305 89.1207C450.309 88.8755 455.319 88.765 460.33 88.765C455.319 88.765 450.309 88.8755 445.305 89.1242C443.729 89.2002 441.694 89.3314 439.538 89.3314ZM426.023 82.8903C425.957 82.538 425.934 82.1788 425.949 81.8231C425.946 81.8818 425.946 81.944 425.946 82.0027V82.0373C425.946 82.3205 425.971 82.6071 426.023 82.8903ZM426.754 78.9635C427.176 78.1415 427.643 77.4749 428.139 76.9293C427.643 77.4749 427.18 78.1415 426.754 78.9635Z" fill="white"/>
</mask>
<g mask="url(#mask4_92_913)">
<path d="M439.538 89.3314C441.694 89.3314 443.729 89.2002 445.305 89.1207C450.309 88.8755 455.319 88.765 460.33 88.765C455.319 88.765 450.309 88.8755 445.305 89.1242C443.729 89.2002 441.694 89.3314 439.538 89.3314ZM426.023 82.8903C425.957 82.538 425.934 82.1788 425.949 81.8231C425.946 81.8818 425.946 81.944 425.946 82.0027V82.0373C425.946 82.3205 425.971 82.6071 426.023 82.8903ZM426.754 78.9635C427.176 78.1415 427.643 77.4749 428.139 76.9293C427.643 77.4749 427.18 78.1415 426.754 78.9635Z" fill="url(#paint2_linear_92_913)"/>
</g>
<mask id="mask5_92_913" style="mask-type:luminance" maskUnits="userSpaceOnUse" x="425" y="62" width="76" height="29">
<path d="M489.784 90.0532C485.402 90.0532 480.773 89.2831 478.198 89.1725C472.247 88.9204 466.288 88.765 460.33 88.765C455.319 88.765 450.308 88.8755 445.305 89.1207C443.729 89.2002 441.693 89.3314 439.537 89.3314C437.924 89.3314 436.242 89.2589 434.633 89.0344C431.969 88.6683 429.505 87.8878 427.877 86.3543C427.873 86.3543 427.873 86.3544 427.873 86.3509L427.87 86.3474C426.937 85.4667 426.279 84.334 426.022 82.8903C425.971 82.6071 425.945 82.3205 425.945 82.0373V82.0027C425.945 81.944 425.945 81.8818 425.948 81.8231C425.952 81.6781 425.963 81.5295 425.982 81.3845C425.982 81.3776 425.982 81.3707 425.985 81.3638C425.985 81.3603 425.985 81.3569 425.985 81.35V81.3465C425.989 81.3258 425.993 81.3085 425.993 81.2878C425.993 81.2843 425.996 81.2809 425.996 81.2774C425.996 81.2705 425.996 81.2636 425.996 81.2567C426.11 80.4624 426.382 79.6853 426.753 78.9635C427.179 78.1415 427.642 77.4749 428.138 76.9293C431.187 73.5792 435.537 74.8053 440.007 73.6863C443.56 72.7952 445.687 68.4781 448.563 65.7808C450.782 63.6982 453.592 62.6034 456.377 62.6034C457.905 62.6034 459.429 62.935 460.84 63.6153C461.854 64.1023 462.828 64.762 463.794 65.4389C465.061 66.3299 466.31 67.2521 467.625 67.8737C468.577 68.3227 469.565 68.6128 470.612 68.6128C470.656 68.6128 470.7 68.6128 470.74 68.6094C472.36 68.5748 473.918 67.8185 475.527 67.5525C475.928 67.4869 476.335 67.4558 476.739 67.4558C478.124 67.4558 479.498 67.8357 480.747 68.5299C480.758 68.5368 480.766 68.5403 480.773 68.5437C480.777 68.5472 480.78 68.5472 480.784 68.5506C480.791 68.5541 480.802 68.561 480.81 68.5645C480.813 68.5679 480.817 68.5679 480.817 68.5714C482.529 69.5418 484.002 71.1029 484.935 73.0784C485.765 74.8363 486.361 77.064 487.929 77.7892C487.948 77.7961 487.966 77.8031 487.984 77.8134C488.352 77.9723 488.737 78.031 489.127 78.031C489.692 78.031 490.277 77.9101 490.839 77.8031C491.445 77.6891 492.058 77.5958 492.672 77.5406C492.679 77.5371 492.69 77.5371 492.697 77.5371C492.705 77.5371 492.712 77.5371 492.716 77.5371C493.072 77.506 493.425 77.4888 493.774 77.4888C495.001 77.4888 496.209 77.696 497.322 78.2762C498.234 78.7493 499.06 79.5368 499.648 80.5038C500.35 81.6504 500.717 83.0526 500.496 84.4652C499.876 88.4576 496.018 89.7597 491.551 90.0049C490.971 90.0394 490.379 90.0532 489.784 90.0532Z" fill="white"/>
</mask>
<g mask="url(#mask5_92_913)">
<rect x="425.64" y="62.4" width="75.3158" height="27.9126" fill="#E1F0FF"/>
</g>
<path d="M419.863 185.948C419.863 185.948 422.166 181.54 422.236 180.823C422.306 180.105 415.664 183.385 415.664 183.385L419.863 185.948Z" fill="#0D6ECD"/>
<defs>
<linearGradient id="paint0_linear_92_913" x1="290.26" y1="56.1805" x2="287.567" y2="11.302" gradientUnits="userSpaceOnUse">
<stop stop-color="#F2EEE0"/>
<stop offset="0.175671" stop-color="#F2EEE0"/>
<stop offset="1" stop-color="#F2EEE0"/>
</linearGradient>
<linearGradient id="paint1_linear_92_913" x1="190.971" y1="200.277" x2="185.423" y2="104.173" gradientUnits="userSpaceOnUse">
<stop stop-color="#F9F7F1"/>
<stop offset="0.175671" stop-color="#F9F7F1"/>
<stop offset="1" stop-color="#F9F7F1"/>
</linearGradient>
<linearGradient id="paint2_linear_92_913" x1="462.373" y1="111.974" x2="463.643" y2="64.4557" gradientUnits="userSpaceOnUse">
<stop stop-color="#F2EEE0"/>
<stop offset="0.928273" stop-color="#F2EEE0"/>
<stop offset="1" stop-color="#F2EEE0"/>
</linearGradient>
</defs>
</svg>
