<svg width="416" height="393" viewBox="0 0 416 393" fill="none" xmlns="http://www.w3.org/2000/svg">
<g clip-path="url(#clip0_98_1549)">
<mask id="mask0_98_1549" style="mask-type:luminance" maskUnits="userSpaceOnUse" x="45" y="323" width="372" height="70">
<path d="M416.002 393H45.8828C52.0877 373.735 65.2151 356.283 82.338 345.603C99.4594 334.917 119.231 329.156 139.137 325.99C149.073 324.406 159.179 323.455 169.249 323.455C172.039 323.455 174.826 323.525 177.605 323.679C187.093 324.202 196.495 325.661 205.632 328.325C205.727 328.355 205.823 328.385 205.919 328.41C218.072 331.99 229.658 337.631 242.136 339.807C246.506 340.569 250.876 340.892 255.251 340.892C267.826 340.892 280.425 338.214 293.047 335.53C305.671 332.851 318.317 330.172 330.996 330.172C333.606 330.172 336.219 330.282 338.832 330.536C353.021 331.895 366.282 337.571 377.969 345.986C394.314 357.747 407.581 374.856 416.002 393Z" fill="white"/>
</mask>
<g mask="url(#mask0_98_1549)">
<rect x="45.1943" y="322.479" width="371.708" height="71.2627" fill="#7BFAC4"/>
</g>
<path d="M370.94 213.367H57.807C49.9398 213.367 43.5625 206.959 43.5625 199.056V14.3117C43.5625 6.40868 49.9398 0.000419853 57.807 0.000419853H370.94C378.81 0.000419853 385.183 6.40868 385.183 14.3117V199.056C385.183 206.959 378.81 213.367 370.94 213.367Z" fill="#C0D4E7"/>
<mask id="mask1_98_1549" style="mask-type:luminance" maskUnits="userSpaceOnUse" x="43" y="0" width="343" height="214">
<path d="M370.944 213.366H57.8109C49.9438 213.366 43.5664 206.959 43.5664 199.055V14.3113C43.5664 6.40831 49.9438 5.36422e-05 57.8109 5.36422e-05H370.944C378.814 5.36422e-05 385.192 6.40831 385.192 14.3113V199.055C385.192 206.959 378.814 213.366 370.944 213.366Z" fill="white"/>
</mask>
<g mask="url(#mask1_98_1549)">
<path d="M398.972 21.0444H29.7783V-21.0475H398.972V21.0444Z" fill="#EAEDF7"/>
<path d="M65.1729 11.0931C65.1729 13.3337 63.3659 15.1492 61.1367 15.1492C58.908 15.1492 57.1006 13.3337 57.1006 11.0931C57.1006 8.85245 58.908 7.04004 61.1367 7.04004C63.3659 7.04004 65.1729 8.85245 65.1729 11.0931Z" fill="#2F313E"/>
<path d="M79.8877 11.1982C79.8877 13.4388 78.0803 15.2543 75.8516 15.2543C73.6224 15.2543 71.8154 13.4388 71.8154 11.1982C71.8154 8.95755 73.6224 7.14509 75.8516 7.14509C78.0803 7.14509 79.8877 8.95755 79.8877 11.1982Z" fill="#8296C9"/>
<path d="M94.6016 11.3033C94.6016 13.5445 92.7941 15.3599 90.5654 15.3599C88.3362 15.3599 86.5293 13.5445 86.5293 11.3033C86.5293 9.06763 88.3362 7.2502 90.5654 7.2502C92.7941 7.2502 94.6016 9.06763 94.6016 11.3033Z" fill="#8296C9"/>
</g>
<path d="M113.617 75.2058H89.9831C87.7484 75.2058 85.9365 73.3859 85.9365 71.1407V47.3958C85.9365 45.1507 87.7484 43.3303 89.9831 43.3303H113.617C115.852 43.3303 117.663 45.1507 117.663 47.3958V71.1407C117.663 73.3859 115.852 75.2058 113.617 75.2058Z" fill="#E6EAF4"/>
<path d="M153.55 75.2059H129.916C127.681 75.2059 125.869 73.386 125.869 71.1409V47.3959C125.869 45.1508 127.681 43.3304 129.916 43.3304H153.55C155.784 43.3304 157.596 45.1508 157.596 47.3959V71.1409C157.596 73.386 155.784 75.2059 153.55 75.2059Z" fill="#E6EAF4"/>
<path d="M193.485 75.2058H169.851C167.617 75.2058 165.805 73.3859 165.805 71.1407V47.3958C165.805 45.1507 167.617 43.3303 169.851 43.3303H193.485C195.72 43.3303 197.531 45.1507 197.531 47.3958V71.1407C197.531 73.3859 195.72 75.2058 193.485 75.2058Z" fill="#E6EAF4"/>
<path d="M85.9346 157.303C85.3474 157.303 84.8711 156.825 84.8711 156.235V83.5676C84.8711 82.9776 85.3474 82.4991 85.9346 82.4991C86.5219 82.4991 86.9982 82.9776 86.9982 83.5676V156.235C86.9982 156.825 86.5219 157.303 85.9346 157.303Z" fill="#E6EAF4"/>
<path d="M197.394 88.0184H94.7257C94.6503 88.0184 94.5889 87.9567 94.5889 87.8805V83.7064C94.5889 83.6302 94.6503 83.5685 94.7257 83.5685H197.394C197.47 83.5685 197.531 83.6302 197.531 83.7064V87.8805C197.531 87.9567 197.47 88.0184 197.394 88.0184Z" fill="#E6EAF4"/>
<path d="M171.582 95.7451H94.7073C94.6414 95.7451 94.5889 95.6914 94.5889 95.6256V91.4147C94.5889 91.3485 94.6414 91.2952 94.7073 91.2952H171.582C171.648 91.2952 171.701 91.3485 171.701 91.4147V95.6256C171.701 95.6914 171.648 95.7451 171.582 95.7451Z" fill="#E6EAF4"/>
<path d="M197.394 103.473H94.7257C94.6503 103.473 94.5889 103.411 94.5889 103.335V99.1611C94.5889 99.0849 94.6503 99.0231 94.7257 99.0231H197.394C197.47 99.0231 197.531 99.0849 197.531 99.1611V103.335C197.531 103.411 197.47 103.473 197.394 103.473Z" fill="#E6EAF4"/>
<path d="M187.07 111.199H94.7187C94.6469 111.199 94.5889 111.141 94.5889 111.069V106.88C94.5889 106.808 94.6469 106.75 94.7187 106.75H187.07C187.142 106.75 187.2 106.808 187.2 106.88V111.069C187.2 111.141 187.142 111.199 187.07 111.199Z" fill="#E6EAF4"/>
<path d="M197.394 118.927H94.7257C94.6503 118.927 94.5889 118.865 94.5889 118.789V114.615C94.5889 114.538 94.6503 114.477 94.7257 114.477H197.394C197.47 114.477 197.531 114.538 197.531 114.615V118.789C197.531 118.865 197.47 118.927 197.394 118.927Z" fill="#E6EAF4"/>
<path d="M163.486 126.654H94.7009C94.6389 126.654 94.5889 126.603 94.5889 126.541V122.317C94.5889 122.255 94.6389 122.204 94.7009 122.204H163.486C163.548 122.204 163.598 122.255 163.598 122.317V126.541C163.598 126.603 163.548 126.654 163.486 126.654Z" fill="#E6EAF4"/>
<path d="M197.394 134.381H94.7257C94.6503 134.381 94.5889 134.319 94.5889 134.243V130.069C94.5889 129.993 94.6503 129.931 94.7257 129.931H197.394C197.47 129.931 197.531 129.993 197.531 130.069V134.243C197.531 134.319 197.47 134.381 197.394 134.381Z" fill="#E6EAF4"/>
<path d="M174.492 142.108H94.7098C94.6429 142.108 94.5889 142.053 94.5889 141.986V137.779C94.5889 137.712 94.6429 137.658 94.7098 137.658H174.492C174.558 137.658 174.613 137.712 174.613 137.779V141.986C174.613 142.053 174.558 142.108 174.492 142.108Z" fill="#E6EAF4"/>
<path d="M197.394 149.835H94.7257C94.6503 149.835 94.5889 149.773 94.5889 149.697V145.523C94.5889 145.448 94.6503 145.386 94.7257 145.386H197.394C197.47 145.386 197.531 145.448 197.531 145.523V149.697C197.531 149.773 197.47 149.835 197.394 149.835Z" fill="#E6EAF4"/>
<path d="M181.703 157.562H94.7148C94.6449 157.562 94.5889 157.505 94.5889 157.435V153.239C94.5889 153.168 94.6449 153.112 94.7148 153.112H181.703C181.772 153.112 181.829 153.168 181.829 153.239V157.435C181.829 157.505 181.772 157.562 181.703 157.562Z" fill="#E6EAF4"/>
<path d="M338.137 118.597H232.126C229.541 118.597 227.446 116.492 227.446 113.896V47.5025C227.446 44.9059 229.541 42.8007 232.126 42.8007H338.137C340.722 42.8007 342.817 44.9059 342.817 47.5025V113.896C342.817 116.492 340.722 118.597 338.137 118.597Z" fill="#0D6ECD"/>
<path d="M335.081 110.072H235.455V53.706C235.455 53.4102 235.693 53.1712 235.987 53.1712C236.28 53.1712 236.519 53.4102 236.519 53.706V109.004H335.081C335.375 109.004 335.612 109.243 335.612 109.538C335.612 109.833 335.375 110.072 335.081 110.072Z" fill="white"/>
<path d="M235.985 96.5349C235.805 96.5349 235.63 96.4443 235.53 96.2795C235.377 96.0275 235.456 95.6984 235.707 95.5446L270.429 74.2539V87.056L305.092 65.4113V76.6305L336.375 58.8039C336.63 58.6585 336.955 58.7486 337.1 59.0045C337.245 59.2614 337.155 59.5876 336.9 59.733L304.029 78.4653V67.3338L269.365 88.9785V76.1579L236.261 96.4568C236.174 96.5096 236.079 96.5349 235.985 96.5349Z" fill="white"/>
<path d="M339.273 57.2801L325.828 58.7345L331.809 69.1426L339.273 57.2801Z" fill="white"/>
<path d="M246.143 149.173H229.028C228.469 149.173 228.017 148.717 228.017 148.156V130.961C228.017 130.399 228.469 129.944 229.028 129.944H246.143C246.702 129.944 247.155 130.399 247.155 130.961V148.156C247.155 148.717 246.702 149.173 246.143 149.173Z" fill="white"/>
<path d="M342.248 133.419H253.727V129.944H342.248V133.419Z" fill="#E6EAF4"/>
<path d="M342.248 141.297H253.727V137.822H342.248V141.297Z" fill="#E6EAF4"/>
<path d="M299.01 149.173H253.727V145.698H299.01V149.173Z" fill="#E6EAF4"/>
<path d="M246.143 175.789H229.028C228.469 175.789 228.017 175.334 228.017 174.773V157.577C228.017 157.016 228.469 156.561 229.028 156.561H246.143C246.702 156.561 247.155 157.016 247.155 157.577V174.773C247.155 175.334 246.702 175.789 246.143 175.789Z" fill="white"/>
<path d="M342.248 160.036H253.727V156.561H342.248V160.036Z" fill="#E6EAF4"/>
<path d="M342.248 167.913H253.727V164.438H342.248V167.913Z" fill="#E6EAF4"/>
<path d="M299.01 175.789H253.727V172.315H299.01V175.789Z" fill="#E6EAF4"/>
<path d="M246.143 202.407H229.028C228.469 202.407 228.017 201.952 228.017 201.39V184.195C228.017 183.634 228.469 183.178 229.028 183.178H246.143C246.702 183.178 247.155 183.634 247.155 184.195V201.39C247.155 201.952 246.702 202.407 246.143 202.407Z" fill="white"/>
<path d="M342.248 186.653H253.727V183.178H342.248V186.653Z" fill="#E6EAF4"/>
<path d="M342.248 194.53H253.727V191.055H342.248V194.53Z" fill="#E6EAF4"/>
<path d="M299.01 202.406H253.727V198.931H299.01V202.406Z" fill="#E6EAF4"/>
<path d="M12.0889 181.32C12.0889 181.32 8.2644 177.743 7.45509 177.634C6.64528 177.526 8.96368 180.753 8.96368 180.753C8.96368 180.753 4.56377 181.02 4.08105 180.662C4.08105 180.662 6.28002 186.672 11.4813 187.006L12.0889 181.32Z" fill="#DA8C8D"/>
<path d="M211.655 164.487L217.871 160.76C217.871 160.76 218.669 164.269 217.871 165.878C217.072 167.485 212.861 169.872 212.861 169.872L211.655 164.487Z" fill="#DA8C8D"/>
<path d="M215.392 162.956L5.71561 181.033C4.18817 181.165 2.84362 180.028 2.71279 178.493L0.0102911 146.853C-0.120547 145.319 1.0114 143.968 2.53883 143.837L212.215 125.759C213.743 125.628 215.087 126.765 215.218 128.299L217.921 159.939C218.052 161.473 216.92 162.824 215.392 162.956Z" fill="#7BFAC4"/>
<path d="M22.5383 167.503L11.8473 156.203C11.6629 156.008 11.6704 155.699 11.8651 155.514C12.0594 155.328 12.3662 155.336 12.5505 155.531L22.405 165.947L30.6859 153.49L40.9582 164.347L49.2391 151.89L59.5124 162.747L67.7948 150.29L78.0676 161.148L86.3495 148.691L96.6213 159.548L104.901 147.091L115.174 157.949L123.457 145.491L133.729 156.349L142.011 143.892L152.285 154.749L160.568 142.292L170.84 153.149L179.124 140.692L189.401 151.55L197.686 139.092L208.382 150.39C208.566 150.586 208.558 150.894 208.365 151.08C208.171 151.265 207.864 151.258 207.678 151.063L197.819 140.647L189.533 153.105L179.258 142.247L170.973 154.705L160.701 143.847L152.418 156.305L142.144 145.447L133.862 157.905L123.589 147.047L115.307 159.504L105.034 148.647L96.7541 161.104L86.4823 150.246L78.2009 162.704L67.9276 151.846L59.6452 164.303L49.3725 153.446L41.091 165.903L30.8188 155.045L22.5383 167.503Z" fill="#2F313E"/>
<path d="M142.114 247.461C142.114 247.461 141.491 296.984 141.854 314.766C142.217 332.552 130.989 386.831 130.989 386.831L127.98 387.418L125.349 385.422L115.957 318.461C115.957 318.461 92.4457 249.489 113.001 234.642L142.114 247.461Z" fill="#2F313E"/>
<path d="M124.777 384.66L132.079 384.501L131.77 388.026C131.77 388.026 139.59 389.45 143.623 393.643H125.309L124.777 384.66Z" fill="#1F1949"/>
<path d="M130.331 252.033C130.331 252.033 118.029 299.993 114.182 317.356C110.334 334.718 86.6082 384.77 86.6082 384.77L83.5459 384.625L81.4609 382.061L88.152 314.772C88.152 314.772 81.6022 242.162 105.077 232.64L130.331 252.033Z" fill="#2F313E"/>
<path d="M81.0881 381.185L88.2198 382.768L87.0864 386.119C87.0864 386.119 94.7657 388.609 97.6922 393.643L79.4834 390.038L81.0881 381.185Z" fill="#1F1949"/>
<path d="M105.998 173.077C105.998 173.077 92.2434 180.458 92.2434 195.898C92.2434 207.954 92.5135 234.643 87.7622 246.301C86.6357 249.066 89.2733 252.045 92.1487 252.806C103.612 255.845 144.025 263.279 143.852 251.37C143.55 230.568 136.495 183.62 129.94 176.634C123.385 169.649 105.998 173.077 105.998 173.077Z" fill="#0D6ECD"/>
<path d="M118.686 172.272C118.686 172.272 159.627 175.813 170.073 178.207C170.073 178.207 193.953 169.016 211.268 162.767L213.228 171.519C213.228 171.519 186.085 197.598 173.998 198.583C161.91 199.567 132.207 199.188 132.207 199.188C132.207 199.188 121.109 187.716 118.678 174.869" fill="#0D6ECD"/>
<path d="M103.541 174.475L57.4557 192.074C57.4557 192.074 19.2149 178.716 12.2795 179.534L11.3428 188.296C11.3428 188.296 44.5553 212.718 57.5617 211.747C70.5677 210.777 109.448 202.585 109.448 202.585L103.541 174.475Z" fill="#0D6ECD"/>
<path d="M117.434 147.056C117.434 147.056 127.311 162.732 118.338 164.892C109.366 167.052 100.982 158.466 102.085 151.104C103.189 143.741 111.637 136.462 117.434 147.056Z" fill="#DA8C8D"/>
<path d="M102.276 154.886C102.276 154.886 106.12 165.66 105.948 175.056C105.948 175.056 113.368 177.886 117.645 176.493C121.922 175.1 111.54 157.888 111.54 157.888L102.276 154.886Z" fill="#DA8C8D"/>
<path d="M115.515 165.229C115.515 165.229 114.063 165.247 109.977 163.547C109.977 163.547 111.43 167.32 116.719 167.864C116.719 167.864 115.989 166.189 115.515 165.229Z" fill="#C17276"/>
<path d="M106.462 149.601C110.094 149.274 113.404 147.439 116.508 145.517C117.838 144.693 119.182 143.82 120.126 142.57C121.689 140.502 121.877 137.438 120.448 135.274C119.818 134.321 118.811 133.52 117.672 133.521C116.533 133.522 115.404 134.61 115.667 135.724C109.571 136.874 104.068 140.665 100.802 145.962C100.028 147.218 99.3701 148.57 99.095 150.02C98.654 152.344 99.2299 154.771 100.266 156.897C101.301 159.023 102.775 160.896 104.237 162.752C104.362 162.904 106.21 161.861 106.398 161.763C106.698 161.607 106.988 161.402 107.147 161.103C107.35 160.722 107.305 160.253 107.172 159.842C106.946 159.14 106.639 158.404 106.186 157.818C105.675 157.157 104.936 156.728 104.395 156.096C103.42 154.96 103.993 153.636 105.36 153.258C105.709 153.161 107.976 152.76 108.171 153.308C107.745 152.112 107.054 150.725 106.462 149.601Z" fill="#2F313E"/>
<path d="M114.764 314.767C114.764 314.767 124.231 284.794 126.295 278.274C126.295 278.274 125.808 328.066 118.677 335.475L114.764 314.767Z" fill="#2F313E"/>
<path d="M92.2185 206.19C92.2185 206.19 92.3736 200.186 92.6759 197.038C92.6759 197.038 74.1381 209.808 66.8018 210.673L92.2185 206.19Z" fill="#005AB1"/>
<path d="M140.367 199.26C140.367 199.26 137.426 190.556 138.22 190.603C139.015 190.65 167.091 199.408 173.998 198.583C173.998 198.583 153.232 199.788 140.367 199.26Z" fill="#005AB1"/>
<path d="M211.49 163.749C211.49 163.749 213.011 161.314 213.754 161.382C214.497 161.449 214.362 164.911 214.362 164.911L211.99 165.983L211.49 163.749Z" fill="#DA8C8D"/>
<path d="M12.0896 181.321C12.0896 181.321 11.7451 178.586 10.3173 177.428C9.92082 177.107 9.5853 177.075 9.69482 177.575C9.97682 178.861 9.88166 181.204 10.1889 181.53C10.634 182.003 12.0896 181.321 12.0896 181.321Z" fill="#DA8C8D"/>
<path d="M331.168 246.915C330.606 247.74 331.022 249.103 331.174 250.206C331.932 255.696 332.689 261.185 333.447 266.675C334.615 275.137 335.783 283.599 336.952 292.061C338.307 301.874 339.661 311.689 341.016 321.498C342.333 331.043 343.651 340.583 344.968 350.129C346.024 357.782 347.081 365.43 348.137 373.083C348.708 377.221 349.279 381.358 349.85 385.501C349.895 385.82 349.939 386.138 349.983 386.457H356.969L359.485 308.139C359.485 308.139 367.592 276.148 368.212 256.839C368.37 251.901 364.738 249.002 360.341 248.051C351.38 246.113 341.499 244.598 332.372 246.238C331.767 246.346 331.391 246.589 331.168 246.915Z" fill="#2F313E"/>
<path d="M323.413 248.572C321.749 249.129 320.508 250.536 320.15 252.262C317.756 263.81 309.756 308.139 310.601 318.267C311.566 329.829 321.999 386.457 321.999 386.457L328.352 386.358L329.318 319.541C329.318 319.541 352.106 271.476 350.748 254.723C349.643 241.097 330.515 246.195 323.413 248.572Z" fill="#2F313E"/>
<path d="M357.257 383.241H349.606L350.092 388.758C350.092 388.758 343.04 389.077 338.836 393.642H356.869L357.257 383.241Z" fill="#1F1949"/>
<path d="M328.565 383.24H320.913L321.4 388.757C321.4 388.757 314.347 389.076 310.144 393.642H328.176L328.565 383.24Z" fill="#1F1949"/>
<path d="M338.009 299.723C338.009 299.723 347.087 278.037 349.549 271.341C349.549 271.341 352.817 291.612 340.255 315.996L338.009 299.723Z" fill="#2F313E"/>
<path d="M340.7 175.553L326.757 149.363L315.975 164.578C315.975 164.578 321.188 186.528 330.87 190.768C340.552 195.008 340.7 175.553 340.7 175.553Z" fill="#005AB1"/>
<path d="M326.992 154.474C326.992 154.474 319.777 170.877 328.663 171.654C337.548 172.432 344.342 163.021 342.241 156.14C340.14 149.26 331.028 143.513 326.992 154.474Z" fill="#DA8C8D"/>
<path d="M342.594 159.784C342.594 159.784 340.451 170.636 341.952 179.595C341.952 179.595 335.26 183.365 330.973 182.647C326.685 181.929 334.164 163.984 334.164 163.984L342.594 159.784Z" fill="#DA8C8D"/>
<path d="M370.015 254.266C370.015 254.266 365.581 227.131 361.55 223.485C361.55 223.485 361.147 179.745 351.07 174.075C340.992 168.406 319.224 177.721 313.984 189.871C308.743 202.021 306.324 219.03 306.324 219.03L322.449 220.245L318.014 261.151C318.014 261.151 356.31 267.226 370.015 254.266Z" fill="#0D6ECD"/>
<path d="M332.716 161.56C333.25 163.543 332.185 165.738 332.876 167.672C333.262 168.756 334.162 169.614 334.455 170.727C334.929 172.53 333.702 174.292 332.58 175.777C331.516 177.185 330.463 178.664 330.021 180.376C329.58 182.088 329.877 184.102 331.191 185.279C332.671 186.606 335.295 186.864 335.809 188.79C335.956 189.341 335.88 189.93 335.993 190.489C336.415 192.558 338.99 193.217 341.083 193.421C345.569 193.859 350.271 194.104 354.407 192.303C358.542 190.503 361.873 186.042 360.924 181.616C360.409 179.21 358.736 177.12 358.532 174.668C358.39 172.968 358.914 171.028 357.842 169.705C356.868 168.504 355.036 168.45 353.825 167.492C352.019 166.062 352.221 163.316 351.555 161.105C351.086 159.546 350.101 158.149 348.794 157.186C347.869 156.504 346.788 156.032 345.963 155.233C345.343 154.632 344.899 153.876 344.416 153.16C342.263 149.963 338.942 147.297 335.11 147.021C332.203 146.812 329.304 148.321 327.724 150.763C327.056 151.797 326.856 152.885 327.308 154.047C327.848 155.434 328.801 156.734 329.851 157.77C330.969 158.875 332.29 159.975 332.716 161.56Z" fill="#2F313E"/>
<path d="M324.6 220.336C324.6 220.336 328.327 201.61 328.101 196.162C328.101 196.162 331.206 210.748 328.26 220.394L324.6 220.336Z" fill="#005AB1"/>
<path d="M308.829 300.565L267.168 289.899L270.038 260.518L312.892 271.489L308.829 300.565Z" fill="#1F1949"/>
<path d="M309.447 219.265L308.603 229.335C308.603 229.335 295.17 255.236 292.165 263.322L295.534 265.502C295.534 265.502 319.689 245.182 320.704 239.605C322.219 231.274 322.919 227.115 323.316 220.354L309.447 219.265Z" fill="#DA8C8D"/>
<path d="M292.163 263.322C292.163 263.322 288.277 269.117 289.207 270.353C290.629 272.24 293.109 271.41 293.822 271.011C295.016 270.344 297.316 263.672 297.316 263.672L292.163 263.322Z" fill="#DA8C8D"/>
<path d="M292.164 263.323C292.164 263.323 290.149 264.545 289.155 265.503L292.164 266.273V263.323Z" fill="#DA8C8D"/>
<path d="M300.53 112.242C300.53 112.242 291.552 101.782 290.461 101.562C289.369 101.343 293.728 107.829 293.728 107.829C293.728 107.829 292.43 109.278 292.43 111.597C292.43 113.915 297.323 115.893 297.323 115.893C297.323 115.893 311.681 153.973 316.864 163.294L326.086 150.311L300.53 112.242Z" fill="#DA8C8D"/>
</g>
<defs>
<clipPath id="clip0_98_1549">
<rect width="416" height="393" fill="white"/>
</clipPath>
</defs>
</svg>
