<svg width="40" height="40" viewBox="0 0 40 40" fill="none" xmlns="http://www.w3.org/2000/svg">
<circle cx="20" cy="20" r="19.5" fill="#FBFBFB" stroke="#E1E1E1"/>
<g clip-path="url(#clip0_98_1672)">
<path d="M28.1875 21.5C28.1875 23.1223 26.8723 24.4375 25.25 24.4375C23.6277 24.4375 22.3125 23.1223 22.3125 21.5C22.3125 19.8777 23.6277 18.5625 25.25 18.5625C26.8723 18.5625 28.1875 19.8777 28.1875 21.5Z" fill="#7BFAC4" stroke="#7BFAC4" stroke-width="0.125"/>
<path d="M11.75 14H28.25" stroke="#0D6ECD" stroke-width="2" stroke-linecap="round" stroke-linejoin="round"/>
<path d="M11.75 20H18.5" stroke="#0D6ECD" stroke-width="2" stroke-linecap="round" stroke-linejoin="round"/>
<path d="M11.75 26H20" stroke="#0D6ECD" stroke-width="2" stroke-linecap="round" stroke-linejoin="round"/>
<path d="M25.25 24.5C26.9069 24.5 28.25 23.1569 28.25 21.5C28.25 19.8431 26.9069 18.5 25.25 18.5C23.5931 18.5 22.25 19.8431 22.25 21.5C22.25 23.1569 23.5931 24.5 25.25 24.5Z" stroke="#7BFAC4" stroke-width="2" stroke-linecap="round" stroke-linejoin="round"/>
<path d="M27.3711 23.6216L29.7495 26" stroke="#7BFAC4" stroke-width="2" stroke-linecap="round" stroke-linejoin="round"/>
</g>
<defs>
<clipPath id="clip0_98_1672">
<rect width="24" height="24" fill="white" transform="translate(8 8)"/>
</clipPath>
</defs>
</svg>
