<svg width="48" height="48" viewBox="0 0 48 48" fill="none" xmlns="http://www.w3.org/2000/svg">
<g clip-path="url(#clip0_92_900)">
<path d="M33 36H37.5C37.8978 36 38.2794 35.842 38.5607 35.5607C38.842 35.2794 39 34.8978 39 34.5V13.5L31.5 6H16.5C16.1022 6 15.7206 6.15804 15.4393 6.43934C15.158 6.72064 15 7.10218 15 7.5V12H25.5L33 19.5V36Z" fill="#7BFAC4"/>
<path d="M31.5 42H10.5C10.1022 42 9.72064 41.842 9.43934 41.5607C9.15804 41.2794 9 40.8978 9 40.5V13.5C9 13.1022 9.15804 12.7206 9.43934 12.4393C9.72064 12.158 10.1022 12 10.5 12H25.5L33 19.5V40.5C33 40.8978 32.842 41.2794 32.5607 41.5607C32.2794 41.842 31.8978 42 31.5 42Z" fill="#0D6ECD"/>
<path d="M16.5 28.5H25.5" stroke="white" stroke-linecap="round" stroke-linejoin="round"/>
<path d="M16.5 34.5H25.5" stroke="white" stroke-linecap="round" stroke-linejoin="round"/>
</g>
<defs>
<clipPath id="clip0_92_900">
<rect width="48" height="48" fill="white"/>
</clipPath>
</defs>
</svg>
