<svg width="185" height="32" viewBox="0 0 185 32" fill="none" xmlns="http://www.w3.org/2000/svg">
<path d="M11.9394 18L0 32H10L17 24L11.9394 18Z" fill="white"/>
<path d="M29 31.416V0H35.8949V16.7851L43.5509 7.6296H51.3412L43.0136 17.6378L52.2814 31.416H44.312L38.3573 22.44L35.8949 25.3123V31.416H29Z" fill="white"/>
<path d="M64.6182 31.9994C62.29 31.9994 60.2007 31.5656 58.3501 30.6979C56.4995 29.8003 55.022 28.4389 53.9177 26.6138C52.8431 24.7887 52.3059 22.4998 52.3059 19.7472V18.8496C52.3059 16.2166 52.8282 14.0325 53.8729 12.2971C54.9176 10.5618 56.3354 9.26024 58.1262 8.39256C59.947 7.49496 61.9617 7.04616 64.1704 7.04616C68.0805 7.04616 71.0355 8.06344 73.0353 10.098C75.0351 12.1026 76.035 15.0198 76.035 18.8496V21.3629H59.3798C59.4395 22.5297 59.7082 23.5021 60.1857 24.2801C60.6932 25.058 61.3349 25.6265 62.1109 25.9855C62.887 26.3146 63.7227 26.4792 64.6182 26.4792C65.9315 26.4792 66.9612 26.2847 67.7074 25.8957C68.4835 25.4769 68.9909 24.9233 69.2297 24.2352H75.5873C75.1097 26.8382 73.9307 28.783 72.0503 30.0696C70.1699 31.3561 67.6925 31.9994 64.6182 31.9994ZM64.3943 12.5664C63.5586 12.5664 62.7676 12.701 62.0214 12.9703C61.2752 13.2396 60.6633 13.6884 60.1857 14.3167C59.738 14.9151 59.4843 15.7379 59.4246 16.7851H69.2744C69.2744 15.6781 69.0506 14.8254 68.6029 14.227C68.1551 13.5986 67.5582 13.1648 66.812 12.9254C66.0956 12.6861 65.2897 12.5664 64.3943 12.5664Z" fill="white"/>
<path d="M78.7143 31.416V7.6296H85.0719V10.861C85.6689 9.78384 86.5942 8.88624 87.8478 8.16816C89.1313 7.42016 90.8326 7.04616 92.9518 7.04616C95.7873 7.04616 97.9215 7.80912 99.3542 9.33504C100.817 10.861 101.548 13.0601 101.548 15.9324V31.416H94.6531V17.5032C94.6531 15.9474 94.3099 14.7805 93.6234 14.0026C92.9667 13.1947 91.8773 12.7908 90.355 12.7908C89.2506 12.7908 88.3403 13.0152 87.6239 13.464C86.9374 13.8829 86.43 14.4514 86.1017 15.1694C85.7734 15.8576 85.6092 16.6355 85.6092 17.5032V31.416H78.7143Z" fill="white"/>
<path d="M115.001 31.6853C113.031 31.6853 111.419 31.4309 110.165 30.9223C108.912 30.3837 107.986 29.5161 107.389 28.3193C106.792 27.0925 106.494 25.432 106.494 23.3376V13.2845H103.584V7.6296H106.494V2.244H113.389V7.6296H118.806V13.2845H113.389V22.2156C113.389 23.562 113.598 24.5194 114.016 25.0879C114.463 25.6564 115.314 25.9406 116.568 25.9406C117.463 25.9406 118.358 25.8957 119.254 25.806V31.416C118.687 31.5057 118.09 31.5656 117.463 31.5955C116.836 31.6553 116.015 31.6853 115.001 31.6853Z" fill="white"/>
<path d="M129.345 31.9994C127.644 31.9994 126.181 31.6703 124.957 31.0121C123.764 30.3538 122.853 29.4562 122.226 28.3193C121.6 27.1524 121.286 25.8658 121.286 24.4596C121.286 22.0959 122.002 20.2857 123.435 19.0291C124.898 17.7725 127.092 17.1442 130.017 17.1442H136.732V16.1568C136.732 14.7206 136.389 13.7333 135.703 13.1947C135.046 12.6562 134.121 12.3869 132.927 12.3869C131.793 12.3869 130.957 12.5664 130.42 12.9254C129.882 13.2546 129.584 13.8081 129.524 14.586H122.629C122.719 13.1498 123.167 11.8633 123.972 10.7263C124.808 9.58936 125.987 8.69176 127.509 8.03352C129.062 7.37528 130.942 7.04616 133.151 7.04616C135.24 7.04616 137.076 7.36032 138.658 7.98864C140.24 8.61695 141.463 9.63423 142.329 11.0405C143.224 12.4168 143.672 14.2718 143.672 16.6056V25.3572C143.672 26.6138 143.702 27.7209 143.762 28.6783C143.821 29.6058 143.911 30.5184 144.03 31.416H137.449C137.419 30.9073 137.374 30.4585 137.314 30.0696C137.285 29.6806 137.27 29.2019 137.27 28.6334C136.553 29.5909 135.553 30.3987 134.27 31.0569C133.016 31.6853 131.375 31.9994 129.345 31.9994ZM131.584 27.1075C132.569 27.1075 133.449 26.928 134.225 26.5689C135.001 26.2099 135.613 25.6713 136.061 24.9533C136.509 24.2053 136.732 23.3675 136.732 22.44V21.4526H131.36C130.345 21.4526 129.584 21.7219 129.076 22.2605C128.599 22.799 128.36 23.4124 128.36 24.1005C128.36 24.9981 128.599 25.7312 129.076 26.2997C129.584 26.8382 130.42 27.1075 131.584 27.1075Z" fill="white"/>
<path d="M147.033 31.416V7.6296H153.391V10.861C153.63 10.3224 154.033 9.75392 154.6 9.15552C155.167 8.55712 155.854 8.06344 156.659 7.67448C157.465 7.2556 158.361 7.04616 159.346 7.04616C159.853 7.04616 160.256 7.07608 160.555 7.13592C160.853 7.19576 161.122 7.2556 161.36 7.31544V13.2845C161.211 13.1947 160.868 13.09 160.331 12.9703C159.793 12.8506 159.182 12.7908 158.495 12.7908C157.421 12.7908 156.54 13.0002 155.854 13.4191C155.197 13.838 154.704 14.4065 154.376 15.1246C154.078 15.8426 153.928 16.6505 153.928 17.5481V31.416H147.033Z" fill="white"/>
<path d="M170.315 31.9994C168.614 31.9994 167.151 31.6703 165.927 31.0121C164.733 30.3538 163.823 29.4562 163.196 28.3193C162.569 27.1524 162.256 25.8658 162.256 24.4596C162.256 22.0959 162.972 20.2857 164.405 19.0291C165.868 17.7725 168.061 17.1442 170.986 17.1442H177.702V16.1568C177.702 14.7206 177.359 13.7333 176.672 13.1947C176.016 12.6562 175.091 12.3869 173.897 12.3869C172.762 12.3869 171.927 12.5664 171.389 12.9254C170.852 13.2546 170.554 13.8081 170.494 14.586H163.599C163.689 13.1498 164.136 11.8633 164.942 10.7263C165.778 9.58936 166.957 8.69176 168.479 8.03352C170.031 7.37528 171.912 7.04616 174.12 7.04616C176.21 7.04616 178.046 7.36032 179.627 7.98864C181.209 8.61695 182.433 9.63423 183.299 11.0405C184.194 12.4168 184.642 14.2718 184.642 16.6056V25.3572C184.642 26.6138 184.672 27.7209 184.731 28.6783C184.791 29.6058 184.881 30.5184 185 31.416H178.419C178.389 30.9073 178.344 30.4585 178.284 30.0696C178.254 29.6806 178.24 29.2019 178.24 28.6334C177.523 29.5909 176.523 30.3987 175.24 31.0569C173.986 31.6853 172.345 31.9994 170.315 31.9994ZM172.553 27.1075C173.538 27.1075 174.419 26.928 175.195 26.5689C175.971 26.2099 176.583 25.6713 177.031 24.9533C177.478 24.2053 177.702 23.3675 177.702 22.44V21.4526H172.33C171.315 21.4526 170.554 21.7219 170.046 22.2605C169.569 22.799 169.33 23.4124 169.33 24.1005C169.33 24.9981 169.569 25.7312 170.046 26.2997C170.554 26.8382 171.389 27.1075 172.553 27.1075Z" fill="white"/>
<path d="M0 0H10L21 11.9849V20L19 22L0 0Z" fill="white"/>
</svg>
